Mozilla Headline-Expanded Bold.ufo
<glyph name="numbersign" format="1">
  <advance width="734"/>
  <unicode hex="0023"/>
  <outline>
    <contour>
      <point x="80" y="0" type="line"/>
      <point x="217" y="0" type="line"/>
      <point x="351" y="690" type="line"/>
      <point x="214" y="690" type="line"/>
    </contour>
    <contour>
      <point x="383" y="0" type="line"/>
      <point x="520" y="0" type="line"/>
      <point x="654" y="690" type="line"/>
      <point x="517" y="690" type="line"/>
    </contour>
    <contour>
      <point x="73" y="413" type="line"/>
      <point x="703" y="413" type="line"/>
      <point x="703" y="532" type="line"/>
      <point x="73" y="532" type="line"/>
    </contour>
    <contour>
      <point x="31" y="158" type="line"/>
      <point x="661" y="158" type="line"/>
      <point x="661" y="277" type="line"/>
      <point x="31" y="277" type="line"/>
    </contour>
  </outline>
</glyph>
<glyph name="ampersand" format="1">
  <advance width="800"/>
  <unicode hex="0026"/>
  <outline>
    <contour>
      <point x="227" y="354" type="curve" smooth="yes"/>
      <point x="520" y="0" type="line"/>
      <point x="758" y="0" type="line"/>
      <point x="758" y="112" type="line"/>
      <point x="631" y="112" type="line"/>
      <point x="347" y="454" type="line" smooth="yes"/>
      <point x="318" y="487"/>
      <point x="309" y="504"/>
      <point x="309" y="527" type="curve" smooth="yes"/>
      <point x="309" y="560"/>
      <point x="331" y="578"/>
      <point x="371" y="578" type="curve" smooth="yes"/>
      <point x="524" y="578" type="line"/>
      <point x="524" y="483" type="line"/>
      <point x="657" y="483" type="line"/>
      <point x="657" y="690" type="line"/>
      <point x="361" y="690" type="line" smooth="yes"/>
      <point x="223" y="690"/>
      <point x="150" y="634"/>
      <point x="150" y="531" type="curve" smooth="yes"/>
      <point x="150" y="472"/>
      <point x="173" y="418"/>
    </contour>
    <contour>
      <point x="240" y="-10" type="curve" smooth="yes"/>
      <point x="330" y="-10"/>
      <point x="389" y="25"/>
      <point x="411" y="91" type="curve"/>
      <point x="463" y="91" type="line"/>
      <point x="432" y="134" type="line"/>
      <point x="390" y="115"/>
      <point x="346" y="106"/>
      <point x="306" y="106" type="curve" smooth="yes"/>
      <point x="241" y="106"/>
      <point x="211" y="134"/>
      <point x="211" y="194" type="curve" smooth="yes"/>
      <point x="211" y="206" type="line" smooth="yes"/>
      <point x="211" y="260"/>
      <point x="239" y="285"/>
      <point x="312" y="291" type="curve"/>
      <point x="259" y="380" type="line"/>
      <point x="112" y="360"/>
      <point x="44" y="301"/>
      <point x="44" y="191" type="curve" smooth="yes"/>
      <point x="44" y="60"/>
      <point x="113" y="-10"/>
    </contour>
    <contour>
      <point x="600" y="146" type="line"/>
      <point x="692" y="166"/>
      <point x="723" y="210"/>
      <point x="723" y="288" type="curve" smooth="yes"/>
      <point x="723" y="392" type="line"/>
      <point x="589" y="392" type="line"/>
      <point x="589" y="209" type="line"/>
      <point x="534" y="209" type="line"/>
    </contour>
  </outline>
</glyph>
<glyph name="parenleft" format="1">
  <advance width="352"/>
  <unicode hex="0028"/>
  <outline>
    <contour>
      <point x="217" y="-92" type="curve"/>
      <point x="346" y="-92" type="line"/>
      <point x="230" y="55"/>
      <point x="191" y="158"/>
      <point x="191" y="325" type="curve" smooth="yes"/>
      <point x="191" y="365" type="line" smooth="yes"/>
      <point x="191" y="532"/>
      <point x="230" y="635"/>
      <point x="346" y="782" type="curve"/>
      <point x="217" y="782" type="line"/>
      <point x="93" y="659"/>
      <point x="43" y="532"/>
      <point x="43" y="345" type="curve" smooth="yes"/>
      <point x="43" y="158"/>
      <point x="93" y="31"/>
    </contour>
  </outline>
</glyph>
<glyph name="parenright" format="1">
  <advance width="352"/>
  <unicode hex="0029"/>
  <outline>
    <contour>
      <point x="135" y="782" type="curve"/>
      <point x="6" y="782" type="line"/>
      <point x="122" y="635"/>
      <point x="161" y="532"/>
      <point x="161" y="365" type="curve" smooth="yes"/>
      <point x="161" y="325" type="line" smooth="yes"/>
      <point x="161" y="158"/>
      <point x="122" y="55"/>
      <point x="6" y="-92" type="curve"/>
      <point x="135" y="-92" type="line"/>
      <point x="259" y="31"/>
      <point x="309" y="158"/>
      <point x="309" y="345" type="curve" smooth="yes"/>
      <point x="309" y="532"/>
      <point x="259" y="659"/>
    </contour>
  </outline>
</glyph>
<glyph name="asterisk" format="1">
  <advance width="478"/>
  <unicode hex="002A"/>
  <outline>
    <contour>
      <point x="32" y="499" type="line"/>
      <point x="115" y="472" type="line"/>
      <point x="211" y="487" type="line"/>
      <point x="213" y="480" type="line"/>
      <point x="127" y="433" type="line"/>
      <point x="76" y="363" type="line"/>
      <point x="168" y="296" type="line"/>
      <point x="218" y="367" type="line"/>
      <point x="235" y="464" type="line"/>
      <point x="243" y="464" type="line"/>
      <point x="260" y="367" type="line"/>
      <point x="310" y="296" type="line"/>
      <point x="402" y="363" type="line"/>
      <point x="351" y="433" type="line"/>
      <point x="263" y="480" type="line"/>
      <point x="265" y="487" type="line"/>
      <point x="363" y="472" type="line"/>
      <point x="446" y="499" type="line"/>
      <point x="411" y="606" type="line"/>
      <point x="328" y="579" type="line"/>
      <point x="258" y="511" type="line"/>
      <point x="252" y="515" type="line"/>
      <point x="295" y="603" type="line"/>
      <point x="295" y="690" type="line"/>
      <point x="183" y="690" type="line"/>
      <point x="183" y="603" type="line"/>
      <point x="226" y="515" type="line"/>
      <point x="220" y="511" type="line"/>
      <point x="150" y="579" type="line"/>
      <point x="67" y="606" type="line"/>
    </contour>
  </outline>
</glyph>
<glyph name="comma" format="1">
  <advance width="276"/>
  <unicode hex="002C"/>
  <outline>
    <contour>
      <point x="53" y="-102" type="line"/>
      <point x="136" y="-102" type="line"/>
      <point x="222" y="0" type="line"/>
      <point x="222" y="161" type="line"/>
      <point x="54" y="161" type="line"/>
      <point x="54" y="0" type="line"/>
      <point x="136" y="0" type="line"/>
    </contour>
  </outline>
</glyph>
<glyph name="slash" format="1">
  <advance width="452"/>
  <unicode hex="002F"/>
  <outline>
    <contour>
      <point x="18" y="-92" type="line"/>
      <point x="169" y="-92" type="line"/>
      <point x="434" y="782" type="line"/>
      <point x="283" y="782" type="line"/>
    </contour>
  </outline>
</glyph>
<glyph name="one" format="1">
  <advance width="546"/>
  <unicode hex="0031"/>
  <outline>
    <contour>
      <point x="53" y="0" type="line"/>
      <point x="524" y="0" type="line"/>
      <point x="524" y="112" type="line"/>
      <point x="370" y="112" type="line"/>
      <point x="370" y="690" type="line"/>
      <point x="257" y="690" type="line"/>
      <point x="57" y="585" type="line"/>
      <point x="57" y="471" type="line"/>
      <point x="207" y="549" type="line"/>
      <point x="207" y="112" type="line"/>
      <point x="53" y="112" type="line"/>
    </contour>
  </outline>
</glyph>
<glyph name="three" format="1">
  <advance width="720"/>
  <unicode hex="0033"/>
  <outline>
    <contour>
      <point x="356" y="-10" type="curve" smooth="yes"/>
      <point x="548" y="-10"/>
      <point x="668" y="67"/>
      <point x="668" y="190" type="curve" smooth="yes"/>
      <point x="668" y="272"/>
      <point x="616" y="326"/>
      <point x="528" y="333" type="curve"/>
      <point x="528" y="371" type="line"/>
      <point x="613" y="379"/>
      <point x="664" y="430"/>
      <point x="664" y="507" type="curve" smooth="yes"/>
      <point x="664" y="626"/>
      <point x="546" y="700"/>
      <point x="356" y="700" type="curve" smooth="yes"/>
      <point x="164" y="700"/>
      <point x="65" y="621"/>
      <point x="42" y="448" type="curve"/>
      <point x="205" y="448" type="line"/>
      <point x="205" y="450" type="line" smooth="yes"/>
      <point x="205" y="534"/>
      <point x="257" y="581"/>
      <point x="356" y="581" type="curve" smooth="yes"/>
      <point x="443" y="581"/>
      <point x="498" y="546"/>
      <point x="498" y="493" type="curve" smooth="yes"/>
      <point x="498" y="491" type="line" smooth="yes"/>
      <point x="498" y="435"/>
      <point x="462" y="404"/>
      <point x="395" y="404" type="curve" smooth="yes"/>
      <point x="246" y="404" type="line"/>
      <point x="246" y="300" type="line"/>
      <point x="394" y="300" type="line" smooth="yes"/>
      <point x="464" y="300"/>
      <point x="502" y="267"/>
      <point x="502" y="206" type="curve" smooth="yes"/>
      <point x="502" y="204" type="line" smooth="yes"/>
      <point x="502" y="146"/>
      <point x="446" y="109"/>
      <point x="356" y="109" type="curve" smooth="yes"/>
      <point x="255" y="109"/>
      <point x="201" y="156"/>
      <point x="201" y="240" type="curve" smooth="yes"/>
      <point x="201" y="242" type="line"/>
      <point x="38" y="242" type="line"/>
      <point x="61" y="69"/>
      <point x="163" y="-10"/>
    </contour>
  </outline>
</glyph>
<glyph name="four" format="1">
  <advance width="685"/>
  <unicode hex="0034"/>
  <outline>
    <contour>
      <point x="31" y="148" type="line"/>
      <point x="659" y="148" type="line"/>
      <point x="659" y="260" type="line"/>
      <point x="205" y="260" type="line"/>
      <point x="414" y="690" type="line"/>
      <point x="240" y="690" type="line"/>
      <point x="31" y="260" type="line"/>
    </contour>
    <contour>
      <point x="385" y="0" type="line"/>
      <point x="548" y="0" type="line"/>
      <point x="548" y="435" type="line"/>
      <point x="436" y="435" type="line"/>
      <point x="385" y="323" type="line"/>
    </contour>
  </outline>
</glyph>
<glyph name="five" format="1">
  <advance width="743"/>
  <unicode hex="0035"/>
  <outline>
    <contour>
      <point x="378" y="-10" type="curve" smooth="yes"/>
      <point x="578" y="-10"/>
      <point x="691" y="78"/>
      <point x="691" y="231" type="curve" smooth="yes"/>
      <point x="691" y="372"/>
      <point x="592" y="461"/>
      <point x="434" y="461" type="curve" smooth="yes"/>
      <point x="341" y="461"/>
      <point x="276" y="427"/>
      <point x="258" y="364" type="curve"/>
      <point x="220" y="364" type="line"/>
      <point x="227" y="427"/>
      <point x="230" y="459"/>
      <point x="230" y="490" type="curve" smooth="yes"/>
      <point x="230" y="574" type="line"/>
      <point x="543" y="574" type="line"/>
      <point x="543" y="483" type="line"/>
      <point x="677" y="483" type="line"/>
      <point x="677" y="690" type="line"/>
      <point x="71" y="690" type="line"/>
      <point x="71" y="312" type="line"/>
      <point x="230" y="312" type="line"/>
      <point x="265" y="337"/>
      <point x="321" y="352"/>
      <point x="378" y="352" type="curve" smooth="yes"/>
      <point x="474" y="352"/>
      <point x="524" y="309"/>
      <point x="524" y="231" type="curve" smooth="yes"/>
      <point x="524" y="231" type="line" smooth="yes"/>
      <point x="524" y="152"/>
      <point x="474" y="109"/>
      <point x="378" y="109" type="curve" smooth="yes"/>
      <point x="277" y="109"/>
      <point x="223" y="156"/>
      <point x="223" y="242" type="curve" smooth="yes"/>
      <point x="223" y="242" type="line"/>
      <point x="61" y="242" type="line"/>
      <point x="84" y="69"/>
      <point x="185" y="-10"/>
    </contour>
  </outline>
</glyph>
<glyph name="six" format="1">
  <advance width="730"/>
  <unicode hex="0036"/>
  <outline>
    <contour>
      <point x="371" y="-10" type="curve" smooth="yes"/>
      <point x="571" y="-10"/>
      <point x="684" y="77"/>
      <point x="684" y="226" type="curve" smooth="yes"/>
      <point x="684" y="367"/>
      <point x="581" y="461"/>
      <point x="427" y="461" type="curve" smooth="yes"/>
      <point x="331" y="461"/>
      <point x="269" y="423"/>
      <point x="248" y="353" type="curve"/>
      <point x="210" y="353" type="line"/>
      <point x="216" y="400"/>
      <point x="218" y="422"/>
      <point x="218" y="443" type="curve" smooth="yes"/>
      <point x="218" y="443" type="line" smooth="yes"/>
      <point x="218" y="532"/>
      <point x="271" y="581"/>
      <point x="369" y="581" type="curve" smooth="yes"/>
      <point x="459" y="581"/>
      <point x="508" y="537"/>
      <point x="508" y="495" type="curve" smooth="yes"/>
      <point x="508" y="495" type="line"/>
      <point x="673" y="495" type="line"/>
      <point x="639" y="634"/>
      <point x="540" y="700"/>
      <point x="369" y="700" type="curve" smooth="yes"/>
      <point x="149" y="700"/>
      <point x="49" y="589"/>
      <point x="49" y="345" type="curve" smooth="yes"/>
      <point x="49" y="99"/>
      <point x="148" y="-10"/>
    </contour>
    <contour>
      <point x="368" y="109" type="curve" smooth="yes"/>
      <point x="272" y="109"/>
      <point x="219" y="152"/>
      <point x="219" y="231" type="curve" smooth="yes"/>
      <point x="219" y="231" type="line" smooth="yes"/>
      <point x="219" y="309"/>
      <point x="272" y="352"/>
      <point x="368" y="352" type="curve" smooth="yes"/>
      <point x="465" y="352"/>
      <point x="517" y="309"/>
      <point x="517" y="231" type="curve" smooth="yes"/>
      <point x="517" y="231" type="line" smooth="yes"/>
      <point x="517" y="152"/>
      <point x="465" y="109"/>
    </contour>
  </outline>
</glyph>
<glyph name="seven" format="1">
  <advance width="644"/>
  <unicode hex="0037"/>
  <outline>
    <contour>
      <point x="137" y="0" type="line"/>
      <point x="313" y="0" type="line"/>
      <point x="617" y="574" type="line"/>
      <point x="617" y="690" type="line"/>
      <point x="32" y="690" type="line"/>
      <point x="32" y="483" type="line"/>
      <point x="165" y="483" type="line"/>
      <point x="165" y="574" type="line"/>
      <point x="441" y="574" type="line"/>
    </contour>
  </outline>
</glyph>
<glyph name="nine" format="1">
  <advance width="730"/>
  <unicode hex="0039"/>
  <outline>
    <contour>
      <point x="359" y="700" type="curve" smooth="yes"/>
      <point x="159" y="700"/>
      <point x="46" y="613"/>
      <point x="46" y="464" type="curve" smooth="yes"/>
      <point x="46" y="323"/>
      <point x="149" y="229"/>
      <point x="303" y="229" type="curve" smooth="yes"/>
      <point x="399" y="229"/>
      <point x="461" y="267"/>
      <point x="482" y="337" type="curve"/>
      <point x="520" y="337" type="line"/>
      <point x="514" y="290"/>
      <point x="512" y="268"/>
      <point x="512" y="247" type="curve" smooth="yes"/>
      <point x="512" y="247" type="line" smooth="yes"/>
      <point x="512" y="158"/>
      <point x="459" y="109"/>
      <point x="361" y="109" type="curve" smooth="yes"/>
      <point x="271" y="109"/>
      <point x="222" y="153"/>
      <point x="222" y="195" type="curve" smooth="yes"/>
      <point x="222" y="195" type="line"/>
      <point x="57" y="195" type="line"/>
      <point x="91" y="56"/>
      <point x="190" y="-10"/>
      <point x="361" y="-10" type="curve" smooth="yes"/>
      <point x="581" y="-10"/>
      <point x="681" y="101"/>
      <point x="681" y="345" type="curve" smooth="yes"/>
      <point x="681" y="591"/>
      <point x="582" y="700"/>
    </contour>
    <contour>
      <point x="362" y="581" type="curve" smooth="yes"/>
      <point x="458" y="581"/>
      <point x="511" y="538"/>
      <point x="511" y="459" type="curve" smooth="yes"/>
      <point x="511" y="459" type="line" smooth="yes"/>
      <point x="511" y="381"/>
      <point x="458" y="338"/>
      <point x="362" y="338" type="curve" smooth="yes"/>
      <point x="265" y="338"/>
      <point x="213" y="381"/>
      <point x="213" y="459" type="curve" smooth="yes"/>
      <point x="213" y="459" type="line" smooth="yes"/>
      <point x="213" y="538"/>
      <point x="265" y="581"/>
    </contour>
  </outline>
</glyph>
<glyph name="greater" format="1">
  <advance width="532"/>
  <unicode hex="003E"/>
  <outline>
    <contour>
      <point x="29" y="88" type="line"/>
      <point x="508" y="249" type="line"/>
      <point x="508" y="425" type="line"/>
      <point x="29" y="586" type="line"/>
      <point x="29" y="472" type="line"/>
      <point x="392" y="356" type="line"/>
      <point x="392" y="318" type="line"/>
      <point x="29" y="202" type="line"/>
    </contour>
  </outline>
</glyph>
<glyph name="D" format="1">
  <advance width="820"/>
  <unicode hex="0044"/>
  <outline>
    <contour>
      <point x="91" y="0" type="line"/>
      <point x="419" y="0" type="line" smooth="yes"/>
      <point x="649" y="0"/>
      <point x="775" y="122"/>
      <point x="775" y="345" type="curve" smooth="yes"/>
      <point x="775" y="568"/>
      <point x="649" y="690"/>
      <point x="419" y="690" type="curve" smooth="yes"/>
      <point x="14" y="690" type="line"/>
      <point x="14" y="578" type="line"/>
      <point x="91" y="578" type="line"/>
    </contour>
    <contour>
      <point x="408" y="112" type="curve" smooth="yes"/>
      <point x="254" y="112" type="line"/>
      <point x="254" y="578" type="line"/>
      <point x="408" y="578" type="line" smooth="yes"/>
      <point x="543" y="578"/>
      <point x="604" y="506"/>
      <point x="604" y="348" type="curve" smooth="yes"/>
      <point x="604" y="342" type="line" smooth="yes"/>
      <point x="604" y="184"/>
      <point x="543" y="112"/>
    </contour>
  </outline>
</glyph>
<glyph name="E" format="1">
  <advance width="720"/>
  <unicode hex="0045"/>
  <outline>
    <contour>
      <point x="529" y="483" type="line"/>
      <point x="662" y="483" type="line"/>
      <point x="662" y="690" type="line"/>
      <point x="15" y="690" type="line"/>
      <point x="15" y="578" type="line"/>
      <point x="92" y="578" type="line"/>
      <point x="92" y="0" type="line"/>
      <point x="666" y="0" type="line"/>
      <point x="666" y="211" type="line"/>
      <point x="533" y="211" type="line"/>
      <point x="533" y="112" type="line"/>
      <point x="255" y="112" type="line"/>
      <point x="255" y="300" type="line"/>
      <point x="543" y="300" type="line"/>
      <point x="543" y="404" type="line"/>
      <point x="255" y="404" type="line"/>
      <point x="255" y="578" type="line"/>
      <point x="529" y="578" type="line"/>
    </contour>
    <contour>
      <point x="666" y="0" type="move" name="ogonek"/>
    </contour>
    <contour>
      <point x="365" y="690" type="move" name="top"/>
    </contour>
  </outline>
</glyph>
<glyph name="H" format="1">
  <advance width="806"/>
  <unicode hex="0048"/>
  <outline>
    <contour>
      <point x="562" y="0" type="line"/>
      <point x="725" y="0" type="line"/>
      <point x="725" y="690" type="line"/>
      <point x="562" y="690" type="line"/>
    </contour>
    <contour>
      <point x="91" y="0" type="line"/>
      <point x="254" y="0" type="line"/>
      <point x="254" y="690" type="line"/>
      <point x="14" y="690" type="line"/>
      <point x="14" y="578" type="line"/>
      <point x="91" y="578" type="line"/>
    </contour>
    <contour>
      <point x="208" y="298" type="line"/>
      <point x="607" y="298" type="line"/>
      <point x="607" y="406" type="line"/>
      <point x="208" y="406" type="line"/>
    </contour>
  </outline>
</glyph>
<glyph name="I" format="1">
  <advance width="417"/>
  <unicode hex="0049"/>
  <outline>
    <contour>
      <point x="49" y="0" type="line"/>
      <point x="368" y="0" type="line"/>
      <point x="368" y="112" type="line"/>
      <point x="290" y="112" type="line"/>
      <point x="290" y="578" type="line"/>
      <point x="368" y="578" type="line"/>
      <point x="368" y="690" type="line"/>
      <point x="49" y="690" type="line"/>
      <point x="49" y="578" type="line"/>
      <point x="127" y="578" type="line"/>
      <point x="127" y="112" type="line"/>
      <point x="49" y="112" type="line"/>
    </contour>
    <contour>
      <point x="209" y="690" type="move" name="top"/>
    </contour>
  </outline>
</glyph>
<glyph name="L" format="1">
  <advance width="684"/>
  <unicode hex="004C"/>
  <outline>
    <contour>
      <point x="93" y="0" type="line"/>
      <point x="651" y="0" type="line"/>
      <point x="651" y="211" type="line"/>
      <point x="517" y="211" type="line"/>
      <point x="517" y="112" type="line"/>
      <point x="256" y="112" type="line"/>
      <point x="256" y="578" type="line"/>
      <point x="332" y="578" type="line"/>
      <point x="332" y="690" type="line"/>
      <point x="16" y="690" type="line"/>
      <point x="16" y="578" type="line"/>
      <point x="93" y="578" type="line"/>
    </contour>
  </outline>
</glyph>
<glyph name="N" format="1">
  <advance width="810"/>
  <unicode hex="004E"/>
  <outline>
    <contour>
      <point x="91" y="0" type="line"/>
      <point x="250" y="0" type="line"/>
      <point x="250" y="341" type="line" smooth="yes"/>
      <point x="250" y="372"/>
      <point x="247" y="404"/>
      <point x="240" y="467" type="curve"/>
      <point x="278" y="467" type="line"/>
      <point x="575" y="0" type="line"/>
      <point x="729" y="0" type="line"/>
      <point x="729" y="690" type="line"/>
      <point x="570" y="690" type="line"/>
      <point x="570" y="414" type="line" smooth="yes"/>
      <point x="570" y="383"/>
      <point x="573" y="351"/>
      <point x="580" y="288" type="curve"/>
      <point x="542" y="288" type="line"/>
      <point x="287" y="690" type="line"/>
      <point x="14" y="690" type="line"/>
      <point x="14" y="578" type="line"/>
      <point x="91" y="578" type="line"/>
    </contour>
    <contour>
      <point x="410" y="690" type="move" name="top"/>
    </contour>
  </outline>
</glyph>
<glyph name="O" format="1">
  <advance width="828"/>
  <unicode hex="004F"/>
  <outline>
    <contour>
      <point x="414" y="-10" type="curve" smooth="yes"/>
      <point x="643" y="-10"/>
      <point x="785" y="126"/>
      <point x="785" y="345" type="curve" smooth="yes"/>
      <point x="785" y="564"/>
      <point x="643" y="700"/>
      <point x="414" y="700" type="curve" smooth="yes"/>
      <point x="185" y="700"/>
      <point x="43" y="564"/>
      <point x="43" y="345" type="curve" smooth="yes"/>
      <point x="43" y="126"/>
      <point x="185" y="-10"/>
    </contour>
    <contour>
      <point x="414" y="110" type="curve" smooth="yes"/>
      <point x="276" y="110"/>
      <point x="214" y="183"/>
      <point x="214" y="342" type="curve" smooth="yes"/>
      <point x="214" y="348" type="line" smooth="yes"/>
      <point x="214" y="507"/>
      <point x="276" y="580"/>
      <point x="414" y="580" type="curve" smooth="yes"/>
      <point x="552" y="580"/>
      <point x="614" y="507"/>
      <point x="614" y="348" type="curve" smooth="yes"/>
      <point x="614" y="342" type="line" smooth="yes"/>
      <point x="614" y="183"/>
      <point x="552" y="110"/>
    </contour>
    <contour>
      <point x="414" y="690" type="move" name="top"/>
    </contour>
  </outline>
</glyph>
<glyph name="Q" format="1">
  <advance width="828"/>
  <unicode hex="0051"/>
  <outline>
    <contour>
      <point x="428" y="-132" type="curve" smooth="yes"/>
      <point x="670" y="-132" type="line"/>
      <point x="670" y="-24" type="line"/>
      <point x="494" y="-24" type="line"/>
      <point x="494" y="17" type="line"/>
      <point x="674" y="30"/>
      <point x="785" y="155"/>
      <point x="785" y="352" type="curve" smooth="yes"/>
      <point x="785" y="564"/>
      <point x="643" y="700"/>
      <point x="414" y="700" type="curve" smooth="yes"/>
      <point x="185" y="700"/>
      <point x="43" y="564"/>
      <point x="43" y="352" type="curve" smooth="yes"/>
      <point x="43" y="133"/>
      <point x="185" y="1"/>
      <point x="414" y="1" type="curve"/>
      <point x="334" y="60" type="line"/>
      <point x="334" y="-38" type="line" smooth="yes"/>
      <point x="334" y="-99"/>
      <point x="367" y="-132"/>
    </contour>
    <contour>
      <point x="414" y="120" type="curve" smooth="yes"/>
      <point x="276" y="120"/>
      <point x="214" y="193"/>
      <point x="214" y="349" type="curve" smooth="yes"/>
      <point x="214" y="351" type="line" smooth="yes"/>
      <point x="214" y="507"/>
      <point x="276" y="580"/>
      <point x="414" y="580" type="curve" smooth="yes"/>
      <point x="552" y="580"/>
      <point x="614" y="507"/>
      <point x="614" y="351" type="curve" smooth="yes"/>
      <point x="614" y="349" type="line" smooth="yes"/>
      <point x="614" y="193"/>
      <point x="552" y="120"/>
    </contour>
    <contour>
      <point x="414" y="690" type="move" name="top"/>
    </contour>
  </outline>
</glyph>
<glyph name="X" format="1">
  <advance width="790"/>
  <unicode hex="0058"/>
  <outline>
    <contour>
      <point x="35" y="0" type="line"/>
      <point x="232" y="0" type="line"/>
      <point x="372" y="287" type="line"/>
      <point x="410" y="287" type="line"/>
      <point x="551" y="0" type="line"/>
      <point x="755" y="0" type="line"/>
      <point x="755" y="110" type="line"/>
      <point x="678" y="110" type="line"/>
      <point x="525" y="411" type="line"/>
      <point x="524" y="327" type="line"/>
      <point x="670" y="580" type="line"/>
      <point x="747" y="580" type="line"/>
      <point x="747" y="690" type="line"/>
      <point x="550" y="690" type="line"/>
      <point x="418" y="421" type="line"/>
      <point x="380" y="421" type="line"/>
      <point x="247" y="690" type="line"/>
      <point x="43" y="690" type="line"/>
      <point x="43" y="580" type="line"/>
      <point x="120" y="580" type="line"/>
      <point x="266" y="327" type="line"/>
      <point x="265" y="411" type="line"/>
      <point x="112" y="110" type="line"/>
      <point x="35" y="110" type="line"/>
    </contour>
  </outline>
</glyph>
<glyph name="Z" format="1">
  <advance width="681"/>
  <unicode hex="005A"/>
  <outline>
    <contour>
      <point x="36" y="0" type="line"/>
      <point x="646" y="0" type="line"/>
      <point x="646" y="112" type="line"/>
      <point x="238" y="112" type="line"/>
      <point x="642" y="578" type="line"/>
      <point x="642" y="690" type="line"/>
      <point x="40" y="690" type="line"/>
      <point x="40" y="578" type="line"/>
      <point x="440" y="578" type="line"/>
      <point x="36" y="112" type="line"/>
    </contour>
    <contour>
      <point x="341" y="690" type="move" name="top"/>
    </contour>
  </outline>
</glyph>
<glyph name="underscore" format="1">
  <advance width="589"/>
  <unicode hex="005F"/>
  <outline>
    <contour>
      <point x="51" y="-134" type="line"/>
      <point x="538" y="-134" type="line"/>
      <point x="538" y="-26" type="line"/>
      <point x="51" y="-26" type="line"/>
    </contour>
  </outline>
</glyph>
<glyph name="a" format="1">
  <advance width="644"/>
  <unicode hex="0061"/>
  <outline>
    <contour>
      <point x="224" y="-10" type="curve" smooth="yes"/>
      <point x="315" y="-10"/>
      <point x="367" y="27"/>
      <point x="392" y="109" type="curve"/>
      <point x="430" y="109" type="line"/>
      <point x="430" y="94" type="line" smooth="yes"/>
      <point x="430" y="33"/>
      <point x="463" y="0"/>
      <point x="523" y="0" type="curve" smooth="yes"/>
      <point x="638" y="0" type="line"/>
      <point x="638" y="108" type="line"/>
      <point x="570" y="108" type="line"/>
      <point x="570" y="324" type="line" smooth="yes"/>
      <point x="570" y="467"/>
      <point x="480" y="544"/>
      <point x="314" y="544" type="curve" smooth="yes"/>
      <point x="163" y="544"/>
      <point x="68" y="479"/>
      <point x="46" y="362" type="curve"/>
      <point x="209" y="362" type="line"/>
      <point x="209" y="362" type="line"/>
      <point x="209" y="391"/>
      <point x="238" y="428"/>
      <point x="310" y="428" type="curve" smooth="yes"/>
      <point x="379" y="428"/>
      <point x="411" y="395"/>
      <point x="411" y="320" type="curve" smooth="yes"/>
      <point x="411" y="255" type="line"/>
      <point x="411" y="242" type="line"/>
      <point x="411" y="189" type="line" smooth="yes"/>
      <point x="411" y="132"/>
      <point x="370" y="102"/>
      <point x="295" y="102" type="curve" smooth="yes"/>
      <point x="234" y="102"/>
      <point x="197" y="123"/>
      <point x="197" y="158" type="curve" smooth="yes"/>
      <point x="197" y="159" type="line" smooth="yes"/>
      <point x="197" y="196"/>
      <point x="225" y="214"/>
      <point x="298" y="221" type="curve" smooth="yes"/>
      <point x="411" y="231" type="line"/>
      <point x="411" y="324" type="line"/>
      <point x="245" y="310" type="line" smooth="yes"/>
      <point x="107" y="298"/>
      <point x="34" y="241"/>
      <point x="34" y="147" type="curve" smooth="yes"/>
      <point x="34" y="50"/>
      <point x="107" y="-10"/>
    </contour>
    <contour>
      <point x="638" y="0" type="move" name="ogonek"/>
    </contour>
    <contour>
      <point x="316" y="534" type="move" name="top"/>
    </contour>
  </outline>
</glyph>
<glyph name="b" format="1">
  <advance width="700"/>
  <unicode hex="0062"/>
  <outline>
    <contour>
      <point x="421" y="-10" type="curve" smooth="yes"/>
      <point x="561" y="-10"/>
      <point x="660" y="102"/>
      <point x="660" y="267" type="curve" smooth="yes"/>
      <point x="660" y="432"/>
      <point x="563" y="544"/>
      <point x="421" y="544" type="curve" smooth="yes"/>
      <point x="336" y="544"/>
      <point x="280" y="505"/>
      <point x="259" y="429" type="curve"/>
      <point x="220" y="429" type="line"/>
      <point x="227" y="492"/>
      <point x="230" y="524"/>
      <point x="230" y="555" type="curve" smooth="yes"/>
      <point x="230" y="690" type="line"/>
      <point x="4" y="690" type="line"/>
      <point x="4" y="582" type="line"/>
      <point x="71" y="582" type="line"/>
      <point x="71" y="0" type="line"/>
      <point x="211" y="0" type="line"/>
      <point x="211" y="115" type="line"/>
      <point x="250" y="115" type="line"/>
      <point x="275" y="33"/>
      <point x="334" y="-10"/>
    </contour>
    <contour>
      <point x="362" y="106" type="curve" smooth="yes"/>
      <point x="272" y="106"/>
      <point x="230" y="156"/>
      <point x="230" y="264" type="curve" smooth="yes"/>
      <point x="230" y="270" type="line" smooth="yes"/>
      <point x="230" y="378"/>
      <point x="272" y="428"/>
      <point x="362" y="428" type="curve" smooth="yes"/>
      <point x="452" y="428"/>
      <point x="493" y="378"/>
      <point x="493" y="270" type="curve" smooth="yes"/>
      <point x="493" y="264" type="line" smooth="yes"/>
      <point x="493" y="156"/>
      <point x="452" y="106"/>
    </contour>
  </outline>
</glyph>
<glyph name="e" format="1">
  <advance width="668"/>
  <unicode hex="0065"/>
  <outline>
    <contour>
      <point x="338" y="-10" type="curve" smooth="yes"/>
      <point x="488" y="-10"/>
      <point x="589" y="58"/>
      <point x="620" y="172" type="curve"/>
      <point x="455" y="172" type="line"/>
      <point x="455" y="172" type="line"/>
      <point x="455" y="153"/>
      <point x="425" y="106"/>
      <point x="338" y="106" type="curve" smooth="yes"/>
      <point x="247" y="106"/>
      <point x="206" y="156"/>
      <point x="206" y="264" type="curve" smooth="yes"/>
      <point x="206" y="273" type="line" smooth="yes"/>
      <point x="206" y="382"/>
      <point x="247" y="432"/>
      <point x="338" y="432" type="curve" smooth="yes"/>
      <point x="429" y="432"/>
      <point x="470" y="382"/>
      <point x="470" y="273" type="curve" smooth="yes"/>
      <point x="470" y="270" type="line"/>
      <point x="575" y="331" type="line"/>
      <point x="142" y="331" type="line"/>
      <point x="142" y="237" type="line"/>
      <point x="629" y="237" type="line"/>
      <point x="629" y="287" type="line" smooth="yes"/>
      <point x="629" y="445"/>
      <point x="519" y="544"/>
      <point x="338" y="544" type="curve" smooth="yes"/>
      <point x="154" y="544"/>
      <point x="39" y="437"/>
      <point x="39" y="267" type="curve" smooth="yes"/>
      <point x="39" y="97"/>
      <point x="154" y="-10"/>
    </contour>
    <contour>
      <point x="430" y="0" type="move" name="ogonek"/>
    </contour>
    <contour>
      <point x="338" y="534" type="move" name="top"/>
    </contour>
  </outline>
</glyph>
<glyph name="i" format="1">
  <advance width="313"/>
  <unicode hex="0069"/>
  <outline>
    <contour>
      <point x="83" y="0" type="line"/>
      <point x="242" y="0" type="line"/>
      <point x="242" y="534" type="line"/>
      <point x="13" y="534" type="line"/>
      <point x="13" y="426" type="line"/>
      <point x="83" y="426" type="line"/>
    </contour>
    <contour>
      <point x="75" y="572" type="line"/>
      <point x="247" y="572" type="line"/>
      <point x="247" y="690" type="line"/>
      <point x="75" y="690" type="line"/>
    </contour>
  </outline>
</glyph>
<glyph name="l" format="1">
  <advance width="306"/>
  <unicode hex="006C"/>
  <outline>
    <contour>
      <point x="74" y="0" type="line"/>
      <point x="233" y="0" type="line"/>
      <point x="233" y="690" type="line"/>
      <point x="4" y="690" type="line"/>
      <point x="4" y="582" type="line"/>
      <point x="74" y="582" type="line"/>
    </contour>
  </outline>
</glyph>
<glyph name="q" format="1">
  <advance width="701"/>
  <unicode hex="0071"/>
  <outline>
    <contour>
      <point x="470" y="-17" type="curve" smooth="yes"/>
      <point x="470" y="-132" type="line"/>
      <point x="696" y="-132" type="line"/>
      <point x="696" y="-23" type="line"/>
      <point x="629" y="-23" type="line"/>
      <point x="629" y="534" type="line"/>
      <point x="489" y="534" type="line"/>
      <point x="489" y="419" type="line"/>
      <point x="450" y="419" type="line"/>
      <point x="425" y="501"/>
      <point x="366" y="544"/>
      <point x="279" y="544" type="curve" smooth="yes"/>
      <point x="139" y="544"/>
      <point x="40" y="432"/>
      <point x="40" y="267" type="curve" smooth="yes"/>
      <point x="40" y="102"/>
      <point x="139" y="-10"/>
      <point x="279" y="-10" type="curve" smooth="yes"/>
      <point x="364" y="-10"/>
      <point x="420" y="29"/>
      <point x="441" y="105" type="curve"/>
      <point x="480" y="105" type="line"/>
      <point x="473" y="42"/>
      <point x="470" y="10"/>
    </contour>
    <contour>
      <point x="338" y="106" type="curve" smooth="yes"/>
      <point x="248" y="106"/>
      <point x="207" y="156"/>
      <point x="207" y="264" type="curve" smooth="yes"/>
      <point x="207" y="270" type="line" smooth="yes"/>
      <point x="207" y="378"/>
      <point x="248" y="428"/>
      <point x="338" y="428" type="curve" smooth="yes"/>
      <point x="428" y="428"/>
      <point x="470" y="378"/>
      <point x="470" y="270" type="curve" smooth="yes"/>
      <point x="470" y="264" type="line" smooth="yes"/>
      <point x="470" y="156"/>
      <point x="428" y="106"/>
    </contour>
  </outline>
</glyph>
<glyph name="r" format="1">
  <advance width="524"/>
  <unicode hex="0072"/>
  <outline>
    <contour>
      <point x="90" y="0" type="line"/>
      <point x="249" y="0" type="line"/>
      <point x="249" y="298" type="line" smooth="yes"/>
      <point x="249" y="386"/>
      <point x="283" y="426"/>
      <point x="356" y="426" type="curve" smooth="yes"/>
      <point x="495" y="426" type="line"/>
      <point x="495" y="542" type="line"/>
      <point x="424" y="542" type="line" smooth="yes"/>
      <point x="341" y="542"/>
      <point x="294" y="505"/>
      <point x="268" y="421" type="curve"/>
      <point x="230" y="421" type="line"/>
      <point x="230" y="534" type="line"/>
      <point x="22" y="534" type="line"/>
      <point x="22" y="426" type="line"/>
      <point x="90" y="426" type="line"/>
    </contour>
  </outline>
</glyph>
<glyph name="s" format="1">
  <advance width="622"/>
  <unicode hex="0073"/>
  <outline>
    <contour>
      <point x="312" y="-10" type="curve" smooth="yes"/>
      <point x="486" y="-10"/>
      <point x="583" y="54"/>
      <point x="583" y="169" type="curve" smooth="yes"/>
      <point x="583" y="256"/>
      <point x="526" y="302"/>
      <point x="401" y="319" type="curve" smooth="yes"/>
      <point x="269" y="337" type="line" smooth="yes"/>
      <point x="221" y="344"/>
      <point x="202" y="355"/>
      <point x="202" y="379" type="curve" smooth="yes"/>
      <point x="202" y="413"/>
      <point x="239" y="432"/>
      <point x="308" y="432" type="curve" smooth="yes"/>
      <point x="392" y="432"/>
      <point x="422" y="399"/>
      <point x="422" y="362" type="curve" smooth="yes"/>
      <point x="422" y="362" type="line"/>
      <point x="581" y="362" type="line"/>
      <point x="558" y="487"/>
      <point x="470" y="544"/>
      <point x="308" y="544" type="curve" smooth="yes"/>
      <point x="137" y="544"/>
      <point x="41" y="480"/>
      <point x="41" y="366" type="curve" smooth="yes"/>
      <point x="41" y="279"/>
      <point x="97" y="232"/>
      <point x="221" y="215" type="curve" smooth="yes"/>
      <point x="353" y="197" type="line" smooth="yes"/>
      <point x="403" y="190"/>
      <point x="422" y="179"/>
      <point x="422" y="155" type="curve" smooth="yes"/>
      <point x="422" y="121"/>
      <point x="383" y="102"/>
      <point x="312" y="102" type="curve" smooth="yes"/>
      <point x="226" y="102"/>
      <point x="194" y="135"/>
      <point x="194" y="172" type="curve" smooth="yes"/>
      <point x="194" y="172" type="line"/>
      <point x="35" y="172" type="line"/>
      <point x="59" y="47"/>
      <point x="148" y="-10"/>
    </contour>
    <contour>
      <point x="304" y="534" type="move" name="top"/>
    </contour>
  </outline>
</glyph>
<glyph name="t" format="1">
  <advance width="430"/>
  <unicode hex="0074"/>
  <outline>
    <contour>
      <point x="204" y="0" type="curve" smooth="yes"/>
      <point x="392" y="0" type="line"/>
      <point x="392" y="108" type="line"/>
      <point x="269" y="108" type="line"/>
      <point x="269" y="646" type="line"/>
      <point x="160" y="646" type="line"/>
      <point x="110" y="534" type="line"/>
      <point x="110" y="94" type="line" smooth="yes"/>
      <point x="110" y="33"/>
      <point x="143" y="0"/>
    </contour>
    <contour>
      <point x="16" y="426" type="line"/>
      <point x="392" y="426" type="line"/>
      <point x="392" y="534" type="line"/>
      <point x="16" y="534" type="line"/>
    </contour>
  </outline>
</glyph>
<glyph name="y" format="1">
  <advance width="629"/>
  <unicode hex="0079"/>
  <outline>
    <contour>
      <point x="98" y="-132" type="line"/>
      <point x="335" y="-132" type="line" smooth="yes"/>
      <point x="396" y="-132"/>
      <point x="423" y="-100"/>
      <point x="442" y="-38" type="curve" smooth="yes"/>
      <point x="618" y="534" type="line"/>
      <point x="459" y="534" type="line"/>
      <point x="340" y="143" type="line"/>
      <point x="302" y="143" type="line"/>
      <point x="182" y="534" type="line"/>
      <point x="16" y="534" type="line"/>
      <point x="170" y="35" type="line"/>
      <point x="305" y="35" type="line"/>
      <point x="287" y="-24" type="line"/>
      <point x="98" y="-24" type="line"/>
    </contour>
    <contour>
      <point x="321" y="534" type="move" name="top"/>
    </contour>
  </outline>
</glyph>
<glyph name="braceleft" format="1">
  <advance width="422"/>
  <unicode hex="007B"/>
  <outline>
    <contour>
      <point x="204" y="-92" type="curve" smooth="yes"/>
      <point x="385" y="-92" type="line"/>
      <point x="385" y="13" type="line"/>
      <point x="281" y="13" type="line" smooth="yes"/>
      <point x="262" y="13"/>
      <point x="253" y="22"/>
      <point x="253" y="40" type="curve" smooth="yes"/>
      <point x="253" y="78"/>
      <point x="290" y="176"/>
      <point x="290" y="239" type="curve" smooth="yes"/>
      <point x="290" y="296"/>
      <point x="262" y="326"/>
      <point x="207" y="326" type="curve"/>
      <point x="207" y="364" type="line"/>
      <point x="262" y="364"/>
      <point x="290" y="394"/>
      <point x="290" y="451" type="curve" smooth="yes"/>
      <point x="290" y="514"/>
      <point x="253" y="612"/>
      <point x="253" y="650" type="curve" smooth="yes"/>
      <point x="253" y="668"/>
      <point x="262" y="677"/>
      <point x="281" y="677" type="curve" smooth="yes"/>
      <point x="385" y="677" type="line"/>
      <point x="385" y="782" type="line"/>
      <point x="204" y="782" type="line" smooth="yes"/>
      <point x="142" y="782"/>
      <point x="109" y="749"/>
      <point x="109" y="686" type="curve" smooth="yes"/>
      <point x="109" y="619"/>
      <point x="149" y="496"/>
      <point x="149" y="444" type="curve" smooth="yes"/>
      <point x="149" y="413"/>
      <point x="136" y="397"/>
      <point x="110" y="397" type="curve" smooth="yes"/>
      <point x="32" y="397" type="line"/>
      <point x="32" y="293" type="line"/>
      <point x="110" y="293" type="line" smooth="yes"/>
      <point x="136" y="293"/>
      <point x="149" y="277"/>
      <point x="149" y="246" type="curve" smooth="yes"/>
      <point x="149" y="194"/>
      <point x="109" y="71"/>
      <point x="109" y="4" type="curve" smooth="yes"/>
      <point x="109" y="-59"/>
      <point x="142" y="-92"/>
    </contour>
  </outline>
</glyph>
<glyph name="braceright" format="1">
  <advance width="422"/>
  <unicode hex="007D"/>
  <outline>
    <contour>
      <point x="218" y="782" type="curve" smooth="yes"/>
      <point x="37" y="782" type="line"/>
      <point x="37" y="677" type="line"/>
      <point x="141" y="677" type="line" smooth="yes"/>
      <point x="160" y="677"/>
      <point x="169" y="668"/>
      <point x="169" y="650" type="curve" smooth="yes"/>
      <point x="169" y="612"/>
      <point x="132" y="514"/>
      <point x="132" y="451" type="curve" smooth="yes"/>
      <point x="132" y="394"/>
      <point x="160" y="364"/>
      <point x="215" y="364" type="curve"/>
      <point x="215" y="326" type="line"/>
      <point x="160" y="326"/>
      <point x="132" y="296"/>
      <point x="132" y="239" type="curve" smooth="yes"/>
      <point x="132" y="176"/>
      <point x="169" y="78"/>
      <point x="169" y="40" type="curve" smooth="yes"/>
      <point x="169" y="22"/>
      <point x="160" y="13"/>
      <point x="141" y="13" type="curve" smooth="yes"/>
      <point x="37" y="13" type="line"/>
      <point x="37" y="-92" type="line"/>
      <point x="218" y="-92" type="line" smooth="yes"/>
      <point x="280" y="-92"/>
      <point x="313" y="-59"/>
      <point x="313" y="4" type="curve" smooth="yes"/>
      <point x="313" y="71"/>
      <point x="273" y="194"/>
      <point x="273" y="246" type="curve" smooth="yes"/>
      <point x="273" y="277"/>
      <point x="286" y="293"/>
      <point x="312" y="293" type="curve" smooth="yes"/>
      <point x="390" y="293" type="line"/>
      <point x="390" y="397" type="line"/>
      <point x="312" y="397" type="line" smooth="yes"/>
      <point x="286" y="397"/>
      <point x="273" y="413"/>
      <point x="273" y="444" type="curve" smooth="yes"/>
      <point x="273" y="496"/>
      <point x="313" y="619"/>
      <point x="313" y="686" type="curve" smooth="yes"/>
      <point x="313" y="749"/>
      <point x="280" y="782"/>
    </contour>
  </outline>
</glyph>
<glyph name="exclamdown" format="1">
  <advance width="298"/>
  <unicode hex="00A1"/>
  <outline>
    <contour>
      <point x="194" y="330" type="line"/>
      <point x="104" y="330" type="line"/>
      <point x="64" y="-44" type="line"/>
      <point x="64" y="-156" type="line"/>
      <point x="234" y="-156" type="line"/>
      <point x="234" y="-44" type="line"/>
    </contour>
    <contour>
      <point x="233" y="534" type="line"/>
      <point x="65" y="534" type="line"/>
      <point x="65" y="373" type="line"/>
      <point x="233" y="373" type="line"/>
    </contour>
  </outline>
</glyph>
<glyph name="cent" format="1">
  <advance width="675"/>
  <unicode hex="00A2"/>
  <outline>
    <contour>
      <point x="343" y="-4" type="curve" smooth="yes"/>
      <point x="499" y="-4"/>
      <point x="605" y="68"/>
      <point x="627" y="194" type="curve"/>
      <point x="464" y="194" type="line"/>
      <point x="464" y="194" type="line"/>
      <point x="464" y="160"/>
      <point x="432" y="110"/>
      <point x="343" y="110" type="curve" smooth="yes"/>
      <point x="254" y="110"/>
      <point x="213" y="156"/>
      <point x="213" y="264" type="curve" smooth="yes"/>
      <point x="213" y="270" type="line" smooth="yes"/>
      <point x="213" y="378"/>
      <point x="254" y="424"/>
      <point x="343" y="424" type="curve" smooth="yes"/>
      <point x="432" y="424"/>
      <point x="464" y="374"/>
      <point x="464" y="348" type="curve"/>
      <point x="464" y="348" type="line"/>
      <point x="626" y="348" type="line"/>
      <point x="600" y="469"/>
      <point x="496" y="538"/>
      <point x="343" y="538" type="curve" smooth="yes"/>
      <point x="161" y="538"/>
      <point x="46" y="437"/>
      <point x="46" y="267" type="curve" smooth="yes"/>
      <point x="46" y="97"/>
      <point x="161" y="-4"/>
    </contour>
    <contour>
      <point x="285" y="-92" type="line"/>
      <point x="401" y="-92" type="line"/>
      <point x="401" y="24" type="line"/>
      <point x="285" y="24" type="line"/>
    </contour>
    <contour>
      <point x="285" y="510" type="line"/>
      <point x="401" y="510" type="line"/>
      <point x="401" y="626" type="line"/>
      <point x="285" y="626" type="line"/>
    </contour>
  </outline>
</glyph>
<glyph name="copyright" format="1">
  <advance width="910"/>
  <unicode hex="00A9"/>
  <outline>
    <contour>
      <point x="455" y="-40" type="curve" smooth="yes"/>
      <point x="688" y="-40"/>
      <point x="852" y="119"/>
      <point x="852" y="345" type="curve" smooth="yes"/>
      <point x="852" y="571"/>
      <point x="688" y="730"/>
      <point x="455" y="730" type="curve" smooth="yes"/>
      <point x="222" y="730"/>
      <point x="58" y="571"/>
      <point x="58" y="345" type="curve" smooth="yes"/>
      <point x="58" y="119"/>
      <point x="222" y="-40"/>
    </contour>
    <contour>
      <point x="455" y="14" type="curve" smooth="yes"/>
      <point x="254" y="14"/>
      <point x="113" y="150"/>
      <point x="113" y="344" type="curve" smooth="yes"/>
      <point x="113" y="346" type="line" smooth="yes"/>
      <point x="113" y="540"/>
      <point x="254" y="676"/>
      <point x="455" y="676" type="curve" smooth="yes"/>
      <point x="656" y="676"/>
      <point x="797" y="540"/>
      <point x="797" y="346" type="curve" smooth="yes"/>
      <point x="797" y="344" type="line" smooth="yes"/>
      <point x="797" y="150"/>
      <point x="656" y="14"/>
    </contour>
    <contour>
      <point x="459" y="100" type="curve" smooth="yes"/>
      <point x="597" y="100"/>
      <point x="697" y="170"/>
      <point x="718" y="284" type="curve"/>
      <point x="564" y="284" type="line"/>
      <point x="564" y="284" type="line"/>
      <point x="564" y="258"/>
      <point x="537" y="211"/>
      <point x="459" y="211" type="curve" smooth="yes"/>
      <point x="378" y="211"/>
      <point x="344" y="253"/>
      <point x="344" y="343" type="curve" smooth="yes"/>
      <point x="344" y="349" type="line" smooth="yes"/>
      <point x="344" y="438"/>
      <point x="378" y="480"/>
      <point x="459" y="480" type="curve" smooth="yes"/>
      <point x="537" y="480"/>
      <point x="564" y="434"/>
      <point x="564" y="414" type="curve" smooth="yes"/>
      <point x="564" y="414" type="line"/>
      <point x="717" y="414" type="line"/>
      <point x="693" y="525"/>
      <point x="595" y="591"/>
      <point x="459" y="591" type="curve" smooth="yes"/>
      <point x="298" y="591"/>
      <point x="188" y="496"/>
      <point x="188" y="346" type="curve" smooth="yes"/>
      <point x="188" y="196"/>
      <point x="298" y="100"/>
    </contour>
  </outline>
</glyph>
<glyph name="registered" format="1">
  <advance width="522"/>
  <unicode hex="00AE"/>
  <outline>
    <contour>
      <point x="261" y="293" type="curve" smooth="yes"/>
      <point x="375" y="293"/>
      <point x="466" y="383"/>
      <point x="466" y="496" type="curve" smooth="yes"/>
      <point x="466" y="610"/>
      <point x="375" y="700"/>
      <point x="261" y="700" type="curve" smooth="yes"/>
      <point x="147" y="700"/>
      <point x="56" y="610"/>
      <point x="56" y="496" type="curve" smooth="yes"/>
      <point x="56" y="383"/>
      <point x="147" y="293"/>
    </contour>
    <contour>
      <point x="294" y="382" type="line"/>
      <point x="367" y="382" type="line"/>
      <point x="319" y="486" type="line"/>
      <point x="256" y="476" type="line"/>
    </contour>
    <contour>
      <point x="261" y="336" type="curve" smooth="yes"/>
      <point x="165" y="336"/>
      <point x="101" y="400"/>
      <point x="101" y="496" type="curve" smooth="yes"/>
      <point x="101" y="498" type="line" smooth="yes"/>
      <point x="101" y="594"/>
      <point x="165" y="657"/>
      <point x="261" y="657" type="curve" smooth="yes"/>
      <point x="357" y="657"/>
      <point x="421" y="594"/>
      <point x="421" y="498" type="curve" smooth="yes"/>
      <point x="421" y="496" type="line" smooth="yes"/>
      <point x="421" y="400"/>
      <point x="357" y="336"/>
    </contour>
    <contour>
      <point x="169" y="382" type="line"/>
      <point x="237" y="382" type="line"/>
      <point x="237" y="461" type="line"/>
      <point x="271" y="461" type="line" smooth="yes"/>
      <point x="329" y="461"/>
      <point x="360" y="486"/>
      <point x="360" y="533" type="curve" smooth="yes"/>
      <point x="360" y="583"/>
      <point x="327" y="611"/>
      <point x="266" y="611" type="curve" smooth="yes"/>
      <point x="169" y="611" type="line"/>
    </contour>
    <contour>
      <point x="267" y="504" type="curve" smooth="yes"/>
      <point x="236" y="504" type="line"/>
      <point x="236" y="563" type="line"/>
      <point x="267" y="563" type="line" smooth="yes"/>
      <point x="285" y="563"/>
      <point x="293" y="555"/>
      <point x="293" y="539" type="curve" smooth="yes"/>
      <point x="293" y="527" type="line" smooth="yes"/>
      <point x="293" y="514"/>
      <point x="285" y="504"/>
    </contour>
  </outline>
</glyph>
<glyph name="plusminus" format="1">
  <advance width="532"/>
  <unicode hex="00B1"/>
  <outline>
    <contour>
      <point x="26" y="342" type="line"/>
      <point x="506" y="342" type="line"/>
      <point x="506" y="450" type="line"/>
      <point x="26" y="450" type="line"/>
    </contour>
    <contour>
      <point x="208" y="173" type="line"/>
      <point x="324" y="173" type="line"/>
      <point x="324" y="619" type="line"/>
      <point x="208" y="619" type="line"/>
    </contour>
    <contour>
      <point x="26" y="0" type="line"/>
      <point x="506" y="0" type="line"/>
      <point x="506" y="108" type="line"/>
      <point x="26" y="108" type="line"/>
    </contour>
  </outline>
</glyph>
<glyph name="twosuperior" format="1">
  <advance width="428"/>
  <unicode hex="00B2"/>
  <note>
twosuperior
</note>
  <outline>
    <contour>
      <point x="32" y="447" type="curve" smooth="yes"/>
      <point x="32" y="368" type="line"/>
      <point x="389" y="368" type="line"/>
      <point x="389" y="474" type="line"/>
      <point x="296" y="474" type="line"/>
      <point x="296" y="443" type="line"/>
      <point x="93" y="443" type="line"/>
      <point x="148" y="393" type="line"/>
      <point x="148" y="447" type="line" smooth="yes"/>
      <point x="148" y="477"/>
      <point x="158" y="478"/>
      <point x="189" y="484" type="curve" smooth="yes"/>
      <point x="270" y="499" type="line" smooth="yes"/>
      <point x="361" y="516"/>
      <point x="393" y="544"/>
      <point x="393" y="595" type="curve" smooth="yes"/>
      <point x="393" y="596" type="line" smooth="yes"/>
      <point x="393" y="660"/>
      <point x="326" y="694"/>
      <point x="215" y="694" type="curve" smooth="yes"/>
      <point x="109" y="694"/>
      <point x="48" y="656"/>
      <point x="34" y="573" type="curve"/>
      <point x="147" y="573" type="line"/>
      <point x="147" y="574" type="line" smooth="yes"/>
      <point x="147" y="601"/>
      <point x="172" y="615"/>
      <point x="215" y="615" type="curve" smooth="yes"/>
      <point x="251" y="615"/>
      <point x="277" y="609"/>
      <point x="277" y="594" type="curve" smooth="yes"/>
      <point x="277" y="593" type="line" smooth="yes"/>
      <point x="277" y="579"/>
      <point x="269" y="572"/>
      <point x="237" y="566" type="curve" smooth="yes"/>
      <point x="156" y="552" type="line" smooth="yes"/>
      <point x="65" y="536"/>
      <point x="32" y="509"/>
    </contour>
  </outline>
</glyph>
<glyph name="threesuperior" format="1">
  <advance width="432"/>
  <unicode hex="00B3"/>
  <note>
threesuperior
</note>
  <outline>
    <contour>
      <point x="217" y="363" type="curve" smooth="yes"/>
      <point x="328" y="363"/>
      <point x="398" y="399"/>
      <point x="398" y="457" type="curve" smooth="yes"/>
      <point x="398" y="494"/>
      <point x="369" y="519"/>
      <point x="316" y="520" type="curve"/>
      <point x="316" y="544" type="line"/>
      <point x="366" y="546"/>
      <point x="396" y="569"/>
      <point x="396" y="604" type="curve" smooth="yes"/>
      <point x="396" y="660"/>
      <point x="326" y="694"/>
      <point x="217" y="694" type="curve" smooth="yes"/>
      <point x="110" y="694"/>
      <point x="51" y="659"/>
      <point x="36" y="583" type="curve"/>
      <point x="151" y="583" type="line"/>
      <point x="151" y="583" type="line" smooth="yes"/>
      <point x="151" y="597"/>
      <point x="172" y="615"/>
      <point x="217" y="615" type="curve" smooth="yes"/>
      <point x="255" y="615"/>
      <point x="279" y="605"/>
      <point x="279" y="592" type="curve" smooth="yes"/>
      <point x="279" y="591" type="line" smooth="yes"/>
      <point x="279" y="576"/>
      <point x="261" y="567"/>
      <point x="229" y="567" type="curve" smooth="yes"/>
      <point x="164" y="567" type="line"/>
      <point x="164" y="498" type="line"/>
      <point x="227" y="498" type="line" smooth="yes"/>
      <point x="262" y="498"/>
      <point x="281" y="488"/>
      <point x="281" y="470" type="curve" smooth="yes"/>
      <point x="281" y="469" type="line" smooth="yes"/>
      <point x="281" y="453"/>
      <point x="256" y="443"/>
      <point x="217" y="443" type="curve" smooth="yes"/>
      <point x="172" y="443"/>
      <point x="148" y="460"/>
      <point x="148" y="475" type="curve" smooth="yes"/>
      <point x="148" y="475" type="line"/>
      <point x="34" y="475" type="line"/>
      <point x="49" y="399"/>
      <point x="108" y="363"/>
    </contour>
  </outline>
</glyph>
<glyph name="micro" format="1">
  <advance width="690"/>
  <unicode hex="00B5"/>
  <outline>
    <contour>
      <point x="79" y="-132" type="line"/>
      <point x="238" y="-132" type="line"/>
      <point x="238" y="-17" type="line" smooth="yes"/>
      <point x="238" y="10"/>
      <point x="235" y="42"/>
      <point x="228" y="105" type="curve"/>
      <point x="170" y="114" type="line"/>
      <point x="184" y="36"/>
      <point x="226" y="-6"/>
      <point x="287" y="-6" type="curve" smooth="yes"/>
      <point x="357" y="-6"/>
      <point x="407" y="28"/>
      <point x="433" y="113" type="curve"/>
      <point x="471" y="113" type="line"/>
      <point x="471" y="0" type="line"/>
      <point x="611" y="0" type="line"/>
      <point x="611" y="534" type="line"/>
      <point x="452" y="534" type="line"/>
      <point x="452" y="234" type="line" smooth="yes"/>
      <point x="452" y="146"/>
      <point x="418" y="106"/>
      <point x="345" y="106" type="curve" smooth="yes"/>
      <point x="272" y="106"/>
      <point x="238" y="146"/>
      <point x="238" y="234" type="curve" smooth="yes"/>
      <point x="238" y="534" type="line"/>
      <point x="79" y="534" type="line"/>
    </contour>
  </outline>
</glyph>
<glyph name="paragraph" format="1">
  <advance width="607"/>
  <unicode hex="00B6"/>
  <outline>
    <contour>
      <point x="386" y="0" type="line"/>
      <point x="520" y="0" type="line"/>
      <point x="520" y="690" type="line"/>
      <point x="254" y="690" type="line" smooth="yes"/>
      <point x="110" y="690"/>
      <point x="30" y="617"/>
      <point x="30" y="484" type="curve" smooth="yes"/>
      <point x="30" y="367"/>
      <point x="105" y="300"/>
      <point x="240" y="300" type="curve" smooth="yes"/>
      <point x="292" y="300" type="line"/>
      <point x="292" y="582" type="line"/>
      <point x="386" y="582" type="line"/>
    </contour>
  </outline>
</glyph>
<glyph name="Ccedilla" format="1">
  <advance width="802"/>
  <unicode hex="00C7"/>
  <note>
Ccedilla
</note>
  <outline>
    <component base="C"/>
    <component base="cedillacomb" xOffset="208"/>
    <contour>
      <point x="408" y="0" type="move" name="bottom"/>
    </contour>
    <contour>
      <point x="408" y="690" type="move" name="top"/>
    </contour>
  </outline>
</glyph>
<glyph name="Edieresis" format="1">
  <advance width="720"/>
  <unicode hex="00CB"/>
  <outline>
    <component base="E"/>
    <component base="dieresiscomb.case" xOffset="165" yOffset="40"/>
    <contour>
      <point x="666" y="0" type="move" name="ogonek"/>
    </contour>
    <contour>
      <point x="365" y="690" type="move" name="top"/>
    </contour>
  </outline>
</glyph>
<glyph name="Eth" format="1">
  <advance width="842"/>
  <unicode hex="00D0"/>
  <note>
Eth
</note>
  <outline>
    <contour>
      <point x="30" y="300" type="line"/>
      <point x="445" y="300" type="line"/>
      <point x="445" y="404" type="line"/>
      <point x="30" y="404" type="line"/>
    </contour>
    <contour>
      <point x="125" y="0" type="line"/>
      <point x="453" y="0" type="line" smooth="yes"/>
      <point x="682" y="0"/>
      <point x="808" y="122"/>
      <point x="808" y="345" type="curve" smooth="yes"/>
      <point x="808" y="568"/>
      <point x="682" y="690"/>
      <point x="453" y="690" type="curve" smooth="yes"/>
      <point x="48" y="690" type="line"/>
      <point x="48" y="578" type="line"/>
      <point x="125" y="578" type="line"/>
    </contour>
    <contour>
      <point x="442" y="112" type="curve" smooth="yes"/>
      <point x="288" y="112" type="line"/>
      <point x="288" y="578" type="line"/>
      <point x="442" y="578" type="line" smooth="yes"/>
      <point x="576" y="578"/>
      <point x="638" y="506"/>
      <point x="638" y="348" type="curve" smooth="yes"/>
      <point x="638" y="342" type="line" smooth="yes"/>
      <point x="638" y="184"/>
      <point x="576" y="112"/>
    </contour>
  </outline>
</glyph>
<glyph name="multiply" format="1">
  <advance width="532"/>
  <unicode hex="00D7"/>
  <outline>
    <contour>
      <point x="119" y="113" type="line"/>
      <point x="490" y="484" type="line"/>
      <point x="413" y="561" type="line"/>
      <point x="42" y="190" type="line"/>
    </contour>
    <contour>
      <point x="410" y="116" type="line"/>
      <point x="487" y="193" type="line"/>
      <point x="122" y="558" type="line"/>
      <point x="45" y="481" type="line"/>
    </contour>
  </outline>
</glyph>
<glyph name="Oslash" format="1">
  <advance width="837"/>
  <unicode hex="00D8"/>
  <note>
Oslash
</note>
  <outline>
    <contour>
      <point x="419" y="-10" type="curve" smooth="yes"/>
      <point x="648" y="-10"/>
      <point x="790" y="126"/>
      <point x="790" y="345" type="curve" smooth="yes"/>
      <point x="790" y="564"/>
      <point x="648" y="700"/>
      <point x="419" y="700" type="curve" smooth="yes"/>
      <point x="190" y="700"/>
      <point x="48" y="564"/>
      <point x="48" y="345" type="curve" smooth="yes"/>
      <point x="48" y="126"/>
      <point x="190" y="-10"/>
    </contour>
    <contour>
      <point x="419" y="110" type="curve" smooth="yes"/>
      <point x="281" y="110"/>
      <point x="219" y="183"/>
      <point x="219" y="342" type="curve" smooth="yes"/>
      <point x="219" y="348" type="line" smooth="yes"/>
      <point x="219" y="507"/>
      <point x="281" y="580"/>
      <point x="419" y="580" type="curve" smooth="yes"/>
      <point x="557" y="580"/>
      <point x="619" y="507"/>
      <point x="619" y="348" type="curve" smooth="yes"/>
      <point x="619" y="342" type="line" smooth="yes"/>
      <point x="619" y="183"/>
      <point x="557" y="110"/>
    </contour>
    <contour>
      <point x="52" y="-10" type="line"/>
      <point x="176" y="-10" type="line"/>
      <point x="248" y="75" type="line"/>
      <point x="254" y="75" type="line"/>
      <point x="666" y="568" type="line"/>
      <point x="672" y="568" type="line"/>
      <point x="786" y="700" type="line"/>
      <point x="662" y="700" type="line"/>
      <point x="590" y="615" type="line"/>
      <point x="584" y="615" type="line"/>
      <point x="172" y="122" type="line"/>
      <point x="166" y="122" type="line"/>
    </contour>
    <contour>
      <point x="419" y="690" type="move" name="top"/>
    </contour>
  </outline>
</glyph>
<glyph name="aacute" format="1">
  <advance width="644"/>
  <unicode hex="00E1"/>
  <note>
aacute
</note>
  <outline>
    <component base="a"/>
    <component base="acutecomb" xOffset="116"/>
    <contour>
      <point x="638" y="0" type="move" name="ogonek"/>
    </contour>
    <contour>
      <point x="316" y="534" type="move" name="top"/>
    </contour>
  </outline>
</glyph>
<glyph name="ae" format="1">
  <advance width="1058"/>
  <unicode hex="00E6"/>
  <note>
ae
</note>
  <outline>
    <contour>
      <point x="223" y="-10" type="curve" smooth="yes"/>
      <point x="314" y="-10"/>
      <point x="396" y="27"/>
      <point x="434" y="129" type="curve"/>
      <point x="472" y="129" type="line"/>
      <point x="507" y="41"/>
      <point x="601" y="-10"/>
      <point x="728" y="-10" type="curve" smooth="yes"/>
      <point x="876" y="-10"/>
      <point x="978" y="58"/>
      <point x="1009" y="172" type="curve"/>
      <point x="844" y="172" type="line"/>
      <point x="844" y="172" type="line"/>
      <point x="844" y="153"/>
      <point x="814" y="106"/>
      <point x="728" y="106" type="curve" smooth="yes"/>
      <point x="637" y="106"/>
      <point x="596" y="156"/>
      <point x="596" y="264" type="curve" smooth="yes"/>
      <point x="596" y="273" type="line" smooth="yes"/>
      <point x="596" y="382"/>
      <point x="637" y="432"/>
      <point x="728" y="432" type="curve" smooth="yes"/>
      <point x="818" y="432"/>
      <point x="859" y="382"/>
      <point x="859" y="273" type="curve" smooth="yes"/>
      <point x="859" y="270" type="line"/>
      <point x="964" y="331" type="line"/>
      <point x="532" y="331" type="line"/>
      <point x="532" y="237" type="line"/>
      <point x="1018" y="237" type="line"/>
      <point x="1018" y="287" type="line" smooth="yes"/>
      <point x="1018" y="445"/>
      <point x="906" y="544"/>
      <point x="728" y="544" type="curve" smooth="yes"/>
      <point x="632" y="544"/>
      <point x="560" y="515"/>
      <point x="530" y="463" type="curve"/>
      <point x="492" y="463" type="line"/>
      <point x="473" y="516"/>
      <point x="408" y="544"/>
      <point x="313" y="544" type="curve" smooth="yes"/>
      <point x="162" y="544"/>
      <point x="67" y="479"/>
      <point x="45" y="362" type="curve"/>
      <point x="208" y="362" type="line"/>
      <point x="208" y="362" type="line"/>
      <point x="208" y="391"/>
      <point x="237" y="428"/>
      <point x="309" y="428" type="curve" smooth="yes"/>
      <point x="378" y="428"/>
      <point x="409" y="395"/>
      <point x="409" y="320" type="curve" smooth="yes"/>
      <point x="409" y="255" type="line"/>
      <point x="409" y="242" type="line"/>
      <point x="409" y="189" type="line" smooth="yes"/>
      <point x="409" y="132"/>
      <point x="369" y="102"/>
      <point x="293" y="102" type="curve" smooth="yes"/>
      <point x="233" y="102"/>
      <point x="196" y="123"/>
      <point x="196" y="158" type="curve" smooth="yes"/>
      <point x="196" y="158" type="line" smooth="yes"/>
      <point x="196" y="196"/>
      <point x="224" y="214"/>
      <point x="296" y="221" type="curve" smooth="yes"/>
      <point x="409" y="231" type="line"/>
      <point x="409" y="324" type="line"/>
      <point x="243" y="310" type="line" smooth="yes"/>
      <point x="106" y="298"/>
      <point x="33" y="241"/>
      <point x="33" y="147" type="curve" smooth="yes"/>
      <point x="33" y="50"/>
      <point x="106" y="-10"/>
    </contour>
    <contour>
      <point x="503" y="534" type="move" name="top"/>
    </contour>
  </outline>
</glyph>
<glyph name="eth" format="1">
  <advance width="676"/>
  <unicode hex="00F0"/>
  <note>
eth
</note>
  <outline>
    <contour>
      <point x="337" y="-10" type="curve" smooth="yes"/>
      <point x="520" y="-10"/>
      <point x="634" y="100"/>
      <point x="634" y="291" type="curve" smooth="yes"/>
      <point x="634" y="485"/>
      <point x="496" y="644"/>
      <point x="447" y="690" type="curve"/>
      <point x="252" y="690" type="line"/>
      <point x="369" y="572"/>
      <point x="447" y="460"/>
      <point x="467" y="387" type="curve"/>
      <point x="429" y="387" type="line"/>
      <point x="409" y="443"/>
      <point x="355" y="490"/>
      <point x="275" y="490" type="curve" smooth="yes"/>
      <point x="133" y="490"/>
      <point x="38" y="379"/>
      <point x="38" y="238" type="curve" smooth="yes"/>
      <point x="38" y="88"/>
      <point x="153" y="-10"/>
    </contour>
    <contour>
      <point x="336" y="106" type="curve" smooth="yes"/>
      <point x="245" y="106"/>
      <point x="205" y="152"/>
      <point x="205" y="242" type="curve" smooth="yes"/>
      <point x="205" y="244" type="line" smooth="yes"/>
      <point x="205" y="334"/>
      <point x="245" y="381"/>
      <point x="335" y="381" type="curve" smooth="yes"/>
      <point x="426" y="381"/>
      <point x="466" y="334"/>
      <point x="466" y="245" type="curve" smooth="yes"/>
      <point x="466" y="243" type="line" smooth="yes"/>
      <point x="466" y="153"/>
      <point x="426" y="106"/>
    </contour>
    <contour>
      <point x="246" y="520" type="line"/>
      <point x="609" y="579" type="line"/>
      <point x="609" y="665" type="line"/>
      <point x="246" y="605" type="line"/>
    </contour>
  </outline>
</glyph>
<glyph name="divide" format="1">
  <advance width="532"/>
  <unicode hex="00F7"/>
  <outline>
    <contour>
      <point x="202" y="453" type="line"/>
      <point x="330" y="453" type="line"/>
      <point x="330" y="578" type="line"/>
      <point x="202" y="578" type="line"/>
    </contour>
    <contour>
      <point x="202" y="96" type="line"/>
      <point x="330" y="96" type="line"/>
      <point x="330" y="221" type="line"/>
      <point x="202" y="221" type="line"/>
    </contour>
    <contour>
      <point x="26" y="283" type="line"/>
      <point x="506" y="283" type="line"/>
      <point x="506" y="391" type="line"/>
      <point x="26" y="391" type="line"/>
    </contour>
  </outline>
</glyph>
<glyph name="oslash" format="1">
  <advance width="688"/>
  <unicode hex="00F8"/>
  <note>
oslash
</note>
  <outline>
    <contour>
      <point x="344" y="-10" type="curve" smooth="yes"/>
      <point x="530" y="-10"/>
      <point x="647" y="97"/>
      <point x="647" y="267" type="curve" smooth="yes"/>
      <point x="647" y="437"/>
      <point x="530" y="544"/>
      <point x="344" y="544" type="curve" smooth="yes"/>
      <point x="158" y="544"/>
      <point x="41" y="437"/>
      <point x="41" y="267" type="curve" smooth="yes"/>
      <point x="41" y="97"/>
      <point x="158" y="-10"/>
    </contour>
    <contour>
      <point x="344" y="104" type="curve" smooth="yes"/>
      <point x="250" y="104"/>
      <point x="206" y="154"/>
      <point x="206" y="264" type="curve" smooth="yes"/>
      <point x="206" y="270" type="line" smooth="yes"/>
      <point x="206" y="380"/>
      <point x="250" y="430"/>
      <point x="344" y="430" type="curve" smooth="yes"/>
      <point x="438" y="430"/>
      <point x="482" y="380"/>
      <point x="482" y="270" type="curve" smooth="yes"/>
      <point x="482" y="264" type="line" smooth="yes"/>
      <point x="482" y="154"/>
      <point x="438" y="104"/>
    </contour>
    <contour>
      <point x="49" y="-10" type="line"/>
      <point x="149" y="-10" type="line"/>
      <point x="220" y="70" type="line"/>
      <point x="224" y="70" type="line"/>
      <point x="522" y="417" type="line"/>
      <point x="527" y="417" type="line"/>
      <point x="639" y="544" type="line"/>
      <point x="539" y="544" type="line"/>
      <point x="468" y="464" type="line"/>
      <point x="464" y="464" type="line"/>
      <point x="166" y="117" type="line"/>
      <point x="161" y="117" type="line"/>
    </contour>
    <contour>
      <point x="344" y="534" type="move" name="top"/>
    </contour>
  </outline>
</glyph>
<glyph name="thorn" format="1">
  <advance width="700"/>
  <unicode hex="00FE"/>
  <note>
thorn
</note>
  <outline>
    <contour>
      <point x="71" y="-132" type="line"/>
      <point x="230" y="-132" type="line"/>
      <point x="230" y="-17" type="line" smooth="yes"/>
      <point x="230" y="10"/>
      <point x="227" y="42"/>
      <point x="220" y="105" type="curve"/>
      <point x="259" y="105" type="line"/>
      <point x="280" y="29"/>
      <point x="336" y="-10"/>
      <point x="421" y="-10" type="curve" smooth="yes"/>
      <point x="561" y="-10"/>
      <point x="660" y="102"/>
      <point x="660" y="267" type="curve" smooth="yes"/>
      <point x="660" y="432"/>
      <point x="561" y="544"/>
      <point x="421" y="544" type="curve" smooth="yes"/>
      <point x="336" y="544"/>
      <point x="280" y="505"/>
      <point x="259" y="429" type="curve"/>
      <point x="220" y="429" type="line"/>
      <point x="227" y="492"/>
      <point x="230" y="524"/>
      <point x="230" y="555" type="curve" smooth="yes"/>
      <point x="230" y="690" type="line"/>
      <point x="4" y="690" type="line"/>
      <point x="4" y="582" type="line"/>
      <point x="71" y="582" type="line"/>
    </contour>
    <contour>
      <point x="362" y="106" type="curve" smooth="yes"/>
      <point x="272" y="106"/>
      <point x="230" y="156"/>
      <point x="230" y="264" type="curve" smooth="yes"/>
      <point x="230" y="270" type="line" smooth="yes"/>
      <point x="230" y="378"/>
      <point x="272" y="428"/>
      <point x="362" y="428" type="curve" smooth="yes"/>
      <point x="452" y="428"/>
      <point x="493" y="378"/>
      <point x="493" y="270" type="curve" smooth="yes"/>
      <point x="493" y="264" type="line" smooth="yes"/>
      <point x="493" y="156"/>
      <point x="452" y="106"/>
    </contour>
  </outline>
</glyph>
<glyph name="Aogonek" format="1">
  <advance width="754"/>
  <unicode hex="0104"/>
  <outline>
    <contour>
      <point x="20" y="0" type="line"/>
      <point x="182" y="0" type="line"/>
      <point x="358" y="563" type="line"/>
      <point x="396" y="563" type="line"/>
      <point x="572" y="0" type="line"/>
      <point x="742" y="0" type="line"/>
      <point x="528" y="690" type="line"/>
      <point x="234" y="690" type="line"/>
    </contour>
    <contour>
      <point x="180" y="150" type="line"/>
      <point x="565" y="150" type="line"/>
      <point x="562" y="258" type="line"/>
      <point x="183" y="258" type="line"/>
    </contour>
    <contour>
      <point x="124" y="578" type="line"/>
      <point x="350" y="578" type="line"/>
      <point x="350" y="690" type="line"/>
      <point x="124" y="690" type="line"/>
    </contour>
    <contour>
      <point x="605" y="-148" type="curve" smooth="yes"/>
      <point x="750" y="-148" type="line"/>
      <point x="750" y="-64" type="line"/>
      <point x="660" y="-64" type="line" smooth="yes"/>
      <point x="642" y="-64"/>
      <point x="635" y="-57"/>
      <point x="635" y="-45" type="curve" smooth="yes"/>
      <point x="635" y="-26"/>
      <point x="660" y="-15"/>
      <point x="742" y="0" type="curve"/>
      <point x="615" y="16" type="line"/>
      <point x="615" y="-22" type="line"/>
      <point x="551" y="-30"/>
      <point x="524" y="-50"/>
      <point x="524" y="-88" type="curve" smooth="yes"/>
      <point x="524" y="-127"/>
      <point x="552" y="-148"/>
    </contour>
    <contour>
      <point x="742" y="0" type="move" name="ogonek"/>
    </contour>
    <contour>
      <point x="375" y="690" type="move" name="top"/>
    </contour>
  </outline>
</glyph>
<glyph name="aogonek" format="1">
  <advance width="644"/>
  <unicode hex="0105"/>
  <outline>
    <component base="a"/>
    <component base="ogonekcomb" xOffset="438"/>
    <contour>
      <point x="638" y="0" type="move" name="ogonek"/>
    </contour>
    <contour>
      <point x="316" y="534" type="move" name="top"/>
    </contour>
  </outline>
</glyph>
<glyph name="OE" format="1">
  <advance width="1191"/>
  <unicode hex="0152"/>
  <note>
OE
</note>
  <outline>
    <contour>
      <point x="401" y="0" type="curve" smooth="yes"/>
      <point x="662" y="0" type="line"/>
      <point x="662" y="112" type="line"/>
      <point x="412" y="112" type="line" smooth="yes"/>
      <point x="277" y="112"/>
      <point x="216" y="184"/>
      <point x="216" y="342" type="curve" smooth="yes"/>
      <point x="216" y="348" type="line" smooth="yes"/>
      <point x="216" y="506"/>
      <point x="277" y="578"/>
      <point x="412" y="578" type="curve" smooth="yes"/>
      <point x="662" y="578" type="line"/>
      <point x="662" y="690" type="line"/>
      <point x="401" y="690" type="line" smooth="yes"/>
      <point x="171" y="690"/>
      <point x="45" y="568"/>
      <point x="45" y="345" type="curve" smooth="yes"/>
      <point x="45" y="122"/>
      <point x="171" y="0"/>
    </contour>
    <contour>
      <point x="1000" y="483" type="line"/>
      <point x="1133" y="483" type="line"/>
      <point x="1133" y="690" type="line"/>
      <point x="563" y="690" type="line"/>
      <point x="563" y="0" type="line"/>
      <point x="1137" y="0" type="line"/>
      <point x="1137" y="211" type="line"/>
      <point x="1004" y="211" type="line"/>
      <point x="1004" y="112" type="line"/>
      <point x="726" y="112" type="line"/>
      <point x="726" y="300" type="line"/>
      <point x="1014" y="300" type="line"/>
      <point x="1014" y="404" type="line"/>
      <point x="726" y="404" type="line"/>
      <point x="726" y="578" type="line"/>
      <point x="1000" y="578" type="line"/>
    </contour>
    <contour>
      <point x="1137" y="0" type="move" name="ogonek"/>
    </contour>
    <contour>
      <point x="849" y="690" type="move" name="top"/>
    </contour>
  </outline>
</glyph>
<glyph name="zacute" format="1">
  <advance width="578"/>
  <unicode hex="017A"/>
  <outline>
    <component base="z"/>
    <component base="acutecomb" xOffset="89"/>
    <contour>
      <point x="289" y="534" type="move" name="top"/>
    </contour>
  </outline>
</glyph>
<glyph name="hungarumlaut" format="1">
  <advance width="400"/>
  <unicode hex="02DD"/>
  <outline>
    <component base="acutecomb" xOffset="-98" identifier="B5F77D7C"/>
    <component base="acutecomb" xOffset="98" identifier="0F7CEE95"/>
    <contour>
      <point x="102" y="534" type="move" name="_top"/>
    </contour>
  </outline>
</glyph>
<glyph name="gravecomb" format="1">
  <advance width="0"/>
  <unicode hex="0300"/>
  <note>
grave
</note>
  <outline>
    <contour>
      <point x="159" y="574" type="line"/>
      <point x="273" y="574" type="line"/>
      <point x="223" y="706" type="line"/>
      <point x="45" y="706" type="line"/>
    </contour>
    <contour>
      <point x="200" y="534" type="move" name="_top"/>
    </contour>
  </outline>
</glyph>
<glyph name="tildecomb" format="1">
  <advance width="0"/>
  <unicode hex="0303"/>
  <note>
tilde
</note>
  <outline>
    <contour>
      <point x="272" y="569" type="curve" smooth="yes"/>
      <point x="343" y="569"/>
      <point x="387" y="610"/>
      <point x="387" y="676" type="curve" smooth="yes"/>
      <point x="387" y="705" type="line"/>
      <point x="283" y="705" type="line"/>
      <point x="283" y="680" type="line" smooth="yes"/>
      <point x="283" y="665"/>
      <point x="276" y="657"/>
      <point x="261" y="657" type="curve" smooth="yes"/>
      <point x="226" y="657"/>
      <point x="208" y="711"/>
      <point x="128" y="711" type="curve" smooth="yes"/>
      <point x="57" y="711"/>
      <point x="13" y="670"/>
      <point x="13" y="604" type="curve" smooth="yes"/>
      <point x="13" y="575" type="line"/>
      <point x="117" y="575" type="line"/>
      <point x="117" y="600" type="line" smooth="yes"/>
      <point x="117" y="615"/>
      <point x="124" y="623"/>
      <point x="139" y="623" type="curve" smooth="yes"/>
      <point x="174" y="623"/>
      <point x="192" y="569"/>
    </contour>
    <contour>
      <point x="200" y="534" type="move" name="_top"/>
    </contour>
  </outline>
</glyph>
<glyph name="ringcomb" format="1">
  <advance width="0"/>
  <unicode hex="030A"/>
  <note>
ring
</note>
  <outline>
    <contour>
      <point x="200" y="566" type="curve" smooth="yes"/>
      <point x="272" y="566"/>
      <point x="320" y="608"/>
      <point x="320" y="670" type="curve" smooth="yes"/>
      <point x="320" y="732"/>
      <point x="272" y="774"/>
      <point x="200" y="774" type="curve" smooth="yes"/>
      <point x="128" y="774"/>
      <point x="80" y="732"/>
      <point x="80" y="670" type="curve" smooth="yes"/>
      <point x="80" y="608"/>
      <point x="128" y="566"/>
    </contour>
    <contour>
      <point x="200" y="628" type="curve" smooth="yes"/>
      <point x="174" y="628"/>
      <point x="160" y="642"/>
      <point x="160" y="669" type="curve" smooth="yes"/>
      <point x="160" y="671" type="line" smooth="yes"/>
      <point x="160" y="698"/>
      <point x="174" y="712"/>
      <point x="200" y="712" type="curve" smooth="yes"/>
      <point x="226" y="712"/>
      <point x="240" y="698"/>
      <point x="240" y="671" type="curve" smooth="yes"/>
      <point x="240" y="669" type="line" smooth="yes"/>
      <point x="240" y="642"/>
      <point x="226" y="628"/>
    </contour>
    <contour>
      <point x="200" y="534" type="move" name="_top"/>
    </contour>
  </outline>
</glyph>
<glyph name="cedillacomb" format="1">
  <advance width="0"/>
  <unicode hex="0327"/>
  <note>
cedilla
</note>
  <outline>
    <contour>
      <point x="94" y="-178" type="line"/>
      <point x="255" y="-178" type="line" smooth="yes"/>
      <point x="327" y="-178"/>
      <point x="359" y="-154"/>
      <point x="359" y="-103" type="curve" smooth="yes"/>
      <point x="359" y="-53"/>
      <point x="327" y="-30"/>
      <point x="255" y="-30" type="curve" smooth="yes"/>
      <point x="213" y="-30" type="line"/>
      <point x="261" y="-43" type="line"/>
      <point x="261" y="10" type="line"/>
      <point x="139" y="10" type="line"/>
      <point x="139" y="-56" type="line"/>
      <point x="208" y="-56" type="line" smooth="yes"/>
      <point x="226" y="-56"/>
      <point x="233" y="-62"/>
      <point x="233" y="-75" type="curve" smooth="yes"/>
      <point x="233" y="-87"/>
      <point x="226" y="-94"/>
      <point x="208" y="-94" type="curve" smooth="yes"/>
      <point x="94" y="-94" type="line"/>
    </contour>
    <contour>
      <point x="200" y="0" type="move" name="_bottom"/>
    </contour>
  </outline>
</glyph>
<glyph name="ogonekcomb" format="1">
  <advance width="0"/>
  <unicode hex="0328"/>
  <outline>
    <contour>
      <point x="63" y="-148" type="curve" smooth="yes"/>
      <point x="208" y="-148" type="line"/>
      <point x="208" y="-64" type="line"/>
      <point x="118" y="-64" type="line" smooth="yes"/>
      <point x="100" y="-64"/>
      <point x="93" y="-57"/>
      <point x="93" y="-45" type="curve" smooth="yes"/>
      <point x="93" y="-26"/>
      <point x="119" y="-15"/>
      <point x="201" y="0" type="curve"/>
      <point x="71" y="16" type="line"/>
      <point x="71" y="-23" type="line"/>
      <point x="9" y="-30"/>
      <point x="-18" y="-50"/>
      <point x="-18" y="-88" type="curve" smooth="yes"/>
      <point x="-18" y="-127"/>
      <point x="10" y="-148"/>
    </contour>
    <contour>
      <point x="200" y="0" type="move" name="_ogonek"/>
    </contour>
  </outline>
</glyph>
<glyph name="pi" format="1">
  <advance width="771"/>
  <unicode hex="03C0"/>
  <outline>
    <contour>
      <point x="567" y="0" type="curve" smooth="yes"/>
      <point x="724" y="0" type="line"/>
      <point x="724" y="108" type="line"/>
      <point x="632" y="108" type="line"/>
      <point x="632" y="479" type="line"/>
      <point x="473" y="479" type="line"/>
      <point x="473" y="94" type="line" smooth="yes"/>
      <point x="473" y="33"/>
      <point x="506" y="0"/>
    </contour>
    <contour>
      <point x="121" y="0" type="line"/>
      <point x="280" y="0" type="line"/>
      <point x="280" y="479" type="line"/>
      <point x="121" y="479" type="line"/>
    </contour>
    <contour>
      <point x="29" y="426" type="line"/>
      <point x="724" y="426" type="line"/>
      <point x="724" y="534" type="line"/>
      <point x="29" y="534" type="line"/>
    </contour>
  </outline>
</glyph>
<glyph name="endash" format="1">
  <advance width="649"/>
  <unicode hex="2013"/>
  <outline>
    <contour>
      <point x="65" y="230" type="line"/>
      <point x="584" y="230" type="line"/>
      <point x="584" y="338" type="line"/>
      <point x="65" y="338" type="line"/>
    </contour>
  </outline>
</glyph>
<glyph name="quotedblleft" format="1">
  <advance width="444"/>
  <unicode hex="201C"/>
  <outline>
    <contour>
      <point x="405" y="690" type="line"/>
      <point x="322" y="690" type="line"/>
      <point x="236" y="588" type="line"/>
      <point x="236" y="427" type="line"/>
      <point x="404" y="427" type="line"/>
      <point x="404" y="588" type="line"/>
      <point x="322" y="588" type="line"/>
    </contour>
    <contour>
      <point x="207" y="690" type="line"/>
      <point x="124" y="690" type="line"/>
      <point x="38" y="588" type="line"/>
      <point x="38" y="427" type="line"/>
      <point x="206" y="427" type="line"/>
      <point x="206" y="588" type="line"/>
      <point x="124" y="588" type="line"/>
    </contour>
  </outline>
</glyph>
<glyph name="daggerdbl" format="1">
  <advance width="541"/>
  <unicode hex="2021"/>
  <outline>
    <contour>
      <point x="59" y="435" type="line"/>
      <point x="483" y="435" type="line"/>
      <point x="483" y="537" type="line"/>
      <point x="391" y="537" type="line"/>
      <point x="318" y="494" type="line"/>
      <point x="311" y="500" type="line"/>
      <point x="336" y="592" type="line"/>
      <point x="336" y="690" type="line"/>
      <point x="206" y="690" type="line"/>
      <point x="206" y="592" type="line"/>
      <point x="231" y="500" type="line"/>
      <point x="224" y="494" type="line"/>
      <point x="151" y="537" type="line"/>
      <point x="59" y="537" type="line"/>
    </contour>
    <contour>
      <point x="206" y="0" type="line"/>
      <point x="336" y="0" type="line"/>
      <point x="336" y="98" type="line"/>
      <point x="311" y="190" type="line"/>
      <point x="318" y="196" type="line"/>
      <point x="391" y="153" type="line"/>
      <point x="483" y="153" type="line"/>
      <point x="483" y="255" type="line"/>
      <point x="59" y="255" type="line"/>
      <point x="59" y="153" type="line"/>
      <point x="151" y="153" type="line"/>
      <point x="224" y="196" type="line"/>
      <point x="231" y="190" type="line"/>
      <point x="206" y="98" type="line"/>
    </contour>
    <contour>
      <point x="215" y="290" type="line"/>
      <point x="326" y="290" type="line"/>
      <point x="326" y="400" type="line"/>
      <point x="215" y="400" type="line"/>
    </contour>
  </outline>
</glyph>
<glyph name="perthousand" format="1">
  <advance width="1356"/>
  <unicode hex="2030"/>
  <outline>
    <contour>
      <point x="62" y="0" type="line"/>
      <point x="204" y="0" type="line"/>
      <point x="451" y="322" type="line"/>
      <point x="309" y="322" type="line"/>
    </contour>
    <contour>
      <point x="441" y="368" type="line"/>
      <point x="583" y="368" type="line"/>
      <point x="830" y="690" type="line"/>
      <point x="688" y="690" type="line"/>
    </contour>
    <contour>
      <point x="246" y="360" type="curve" smooth="yes"/>
      <point x="383" y="360"/>
      <point x="467" y="428"/>
      <point x="467" y="530" type="curve" smooth="yes"/>
      <point x="467" y="632"/>
      <point x="383" y="700"/>
      <point x="246" y="700" type="curve" smooth="yes"/>
      <point x="110" y="700"/>
      <point x="26" y="632"/>
      <point x="26" y="530" type="curve" smooth="yes"/>
      <point x="26" y="428"/>
      <point x="110" y="360"/>
    </contour>
    <contour>
      <point x="246" y="450" type="curve" smooth="yes"/>
      <point x="187" y="450"/>
      <point x="156" y="476"/>
      <point x="156" y="524" type="curve" smooth="yes"/>
      <point x="156" y="536" type="line" smooth="yes"/>
      <point x="156" y="584"/>
      <point x="187" y="610"/>
      <point x="246" y="610" type="curve" smooth="yes"/>
      <point x="306" y="610"/>
      <point x="336" y="584"/>
      <point x="336" y="536" type="curve" smooth="yes"/>
      <point x="336" y="524" type="line" smooth="yes"/>
      <point x="336" y="476"/>
      <point x="306" y="450"/>
    </contour>
    <contour>
      <point x="646" y="-10" type="curve" smooth="yes"/>
      <point x="782" y="-10"/>
      <point x="866" y="58"/>
      <point x="866" y="160" type="curve" smooth="yes"/>
      <point x="866" y="262"/>
      <point x="782" y="330"/>
      <point x="646" y="330" type="curve" smooth="yes"/>
      <point x="509" y="330"/>
      <point x="425" y="262"/>
      <point x="425" y="160" type="curve" smooth="yes"/>
      <point x="425" y="58"/>
      <point x="509" y="-10"/>
    </contour>
    <contour>
      <point x="646" y="80" type="curve" smooth="yes"/>
      <point x="586" y="80"/>
      <point x="556" y="106"/>
      <point x="556" y="154" type="curve" smooth="yes"/>
      <point x="556" y="166" type="line" smooth="yes"/>
      <point x="556" y="214"/>
      <point x="586" y="240"/>
      <point x="646" y="240" type="curve" smooth="yes"/>
      <point x="705" y="240"/>
      <point x="736" y="214"/>
      <point x="736" y="166" type="curve" smooth="yes"/>
      <point x="736" y="154" type="line" smooth="yes"/>
      <point x="736" y="106"/>
      <point x="705" y="80"/>
    </contour>
    <contour>
      <point x="1118" y="-10" type="curve" smooth="yes"/>
      <point x="1254" y="-10"/>
      <point x="1338" y="58"/>
      <point x="1338" y="160" type="curve" smooth="yes"/>
      <point x="1338" y="262"/>
      <point x="1254" y="330"/>
      <point x="1118" y="330" type="curve" smooth="yes"/>
      <point x="981" y="330"/>
      <point x="897" y="262"/>
      <point x="897" y="160" type="curve" smooth="yes"/>
      <point x="897" y="58"/>
      <point x="981" y="-10"/>
    </contour>
    <contour>
      <point x="1118" y="80" type="curve" smooth="yes"/>
      <point x="1058" y="80"/>
      <point x="1028" y="106"/>
      <point x="1028" y="154" type="curve" smooth="yes"/>
      <point x="1028" y="166" type="line" smooth="yes"/>
      <point x="1028" y="214"/>
      <point x="1058" y="240"/>
      <point x="1118" y="240" type="curve" smooth="yes"/>
      <point x="1177" y="240"/>
      <point x="1208" y="214"/>
      <point x="1208" y="166" type="curve" smooth="yes"/>
      <point x="1208" y="154" type="line" smooth="yes"/>
      <point x="1208" y="106"/>
      <point x="1177" y="80"/>
    </contour>
  </outline>
</glyph>
<glyph name="guilsinglright" format="1">
  <advance width="393"/>
  <unicode hex="203A"/>
  <outline>
    <contour>
      <point x="187" y="486" type="line"/>
      <point x="44" y="486" type="line"/>
      <point x="208" y="294" type="line"/>
      <point x="208" y="274" type="line"/>
      <point x="44" y="82" type="line"/>
      <point x="187" y="82" type="line"/>
      <point x="349" y="257" type="line"/>
      <point x="349" y="311" type="line"/>
    </contour>
  </outline>
</glyph>
<glyph name="euro" format="1">
  <advance width="848"/>
  <unicode hex="20AC"/>
  <outline>
    <contour>
      <point x="472" y="-10" type="curve" smooth="yes"/>
      <point x="652" y="-10"/>
      <point x="778" y="84"/>
      <point x="811" y="240" type="curve"/>
      <point x="646" y="240" type="line"/>
      <point x="646" y="240" type="line"/>
      <point x="646" y="186"/>
      <point x="591" y="110"/>
      <point x="472" y="110" type="curve" smooth="yes"/>
      <point x="351" y="110"/>
      <point x="286" y="183"/>
      <point x="286" y="342" type="curve" smooth="yes"/>
      <point x="286" y="348" type="line" smooth="yes"/>
      <point x="286" y="507"/>
      <point x="351" y="580"/>
      <point x="472" y="580" type="curve" smooth="yes"/>
      <point x="590" y="580"/>
      <point x="646" y="505"/>
      <point x="646" y="472" type="curve"/>
      <point x="646" y="472" type="line"/>
      <point x="805" y="472" type="line"/>
      <point x="766" y="615"/>
      <point x="643" y="700"/>
      <point x="472" y="700" type="curve" smooth="yes"/>
      <point x="260" y="700"/>
      <point x="120" y="564"/>
      <point x="120" y="345" type="curve" smooth="yes"/>
      <point x="120" y="126"/>
      <point x="260" y="-10"/>
    </contour>
    <contour>
      <point x="53" y="238" type="line"/>
      <point x="560" y="238" type="line"/>
      <point x="560" y="332" type="line"/>
      <point x="53" y="332" type="line"/>
    </contour>
    <contour>
      <point x="53" y="372" type="line"/>
      <point x="560" y="372" type="line"/>
      <point x="560" y="466" type="line"/>
      <point x="53" y="466" type="line"/>
    </contour>
  </outline>
</glyph>
<glyph name="trademark" format="1">
  <advance width="1030"/>
  <unicode hex="2122"/>
  <outline>
    <contour>
      <point x="178" y="304" type="line"/>
      <point x="279" y="304" type="line"/>
      <point x="279" y="621" type="line"/>
      <point x="335" y="621" type="line"/>
      <point x="335" y="562" type="line"/>
      <point x="417" y="562" type="line"/>
      <point x="417" y="690" type="line"/>
      <point x="40" y="690" type="line"/>
      <point x="40" y="562" type="line"/>
      <point x="122" y="562" type="line"/>
      <point x="122" y="621" type="line"/>
      <point x="178" y="621" type="line"/>
    </contour>
    <contour>
      <point x="458" y="304" type="line"/>
      <point x="557" y="304" type="line"/>
      <point x="557" y="612" type="line"/>
      <point x="580" y="612" type="line"/>
      <point x="657" y="304" type="line"/>
      <point x="752" y="304" type="line"/>
      <point x="829" y="612" type="line"/>
      <point x="852" y="612" type="line"/>
      <point x="852" y="304" type="line"/>
      <point x="953" y="304" type="line"/>
      <point x="953" y="690" type="line"/>
      <point x="772" y="690" type="line"/>
      <point x="717" y="458" type="line"/>
      <point x="694" y="458" type="line"/>
      <point x="639" y="690" type="line"/>
      <point x="458" y="690" type="line"/>
    </contour>
  </outline>
</glyph>
<glyph name="partialdiff" format="1">
  <advance width="676"/>
  <unicode hex="2202"/>
  <outline>
    <contour>
      <point x="333" y="-10" type="curve" smooth="yes"/>
      <point x="517" y="-10"/>
      <point x="630" y="100"/>
      <point x="630" y="291" type="curve" smooth="yes"/>
      <point x="630" y="489"/>
      <point x="488" y="695"/>
      <point x="212" y="700" type="curve"/>
      <point x="212" y="559" type="line"/>
      <point x="376" y="556"/>
      <point x="443" y="460"/>
      <point x="464" y="387" type="curve"/>
      <point x="426" y="387" type="line"/>
      <point x="405" y="443"/>
      <point x="352" y="490"/>
      <point x="272" y="490" type="curve" smooth="yes"/>
      <point x="129" y="490"/>
      <point x="35" y="388"/>
      <point x="35" y="245" type="curve" smooth="yes"/>
      <point x="35" y="87"/>
      <point x="149" y="-10"/>
    </contour>
    <contour>
      <point x="332" y="106" type="curve" smooth="yes"/>
      <point x="242" y="106"/>
      <point x="202" y="152"/>
      <point x="202" y="242" type="curve" smooth="yes"/>
      <point x="202" y="244" type="line" smooth="yes"/>
      <point x="202" y="334"/>
      <point x="241" y="381"/>
      <point x="332" y="381" type="curve" smooth="yes"/>
      <point x="422" y="381"/>
      <point x="462" y="334"/>
      <point x="462" y="244" type="curve" smooth="yes"/>
      <point x="462" y="242" type="line" smooth="yes"/>
      <point x="462" y="153"/>
      <point x="422" y="106"/>
    </contour>
  </outline>
</glyph>
<glyph name="increment" format="1">
  <advance width="737"/>
  <unicode hex="2206"/>
  <outline>
    <contour>
      <point x="31" y="0" type="line"/>
      <point x="706" y="0" type="line"/>
      <point x="706" y="112" type="line"/>
      <point x="515" y="690" type="line"/>
      <point x="224" y="690" type="line"/>
      <point x="31" y="112" type="line"/>
    </contour>
    <contour>
      <point x="193" y="112" type="line"/>
      <point x="346" y="563" type="line"/>
      <point x="384" y="563" type="line"/>
      <point x="538" y="112" type="line"/>
    </contour>
  </outline>
</glyph>
<glyph name="summation" format="1">
  <advance width="682"/>
  <unicode hex="2211"/>
  <outline>
    <contour>
      <point x="46" y="0" type="line"/>
      <point x="637" y="0" type="line"/>
      <point x="637" y="130" type="line"/>
      <point x="254" y="130" type="line"/>
      <point x="480" y="345" type="line"/>
      <point x="254" y="560" type="line"/>
      <point x="635" y="560" type="line"/>
      <point x="635" y="690" type="line"/>
      <point x="46" y="690" type="line"/>
      <point x="46" y="578" type="line"/>
      <point x="275" y="345" type="line"/>
      <point x="46" y="112" type="line"/>
    </contour>
  </outline>
</glyph>
<glyph name="radical" format="1">
  <advance width="620"/>
  <unicode hex="221A"/>
  <outline>
    <contour>
      <point x="147" y="0" type="line"/>
      <point x="419" y="0" type="line"/>
      <point x="589" y="690" type="line"/>
      <point x="438" y="690" type="line"/>
      <point x="302" y="123" type="line"/>
      <point x="264" y="123" type="line"/>
      <point x="186" y="404" type="line"/>
      <point x="35" y="404" type="line"/>
    </contour>
  </outline>
</glyph>
<glyph name="infinity" format="1">
  <advance width="746"/>
  <unicode hex="221E"/>
  <outline>
    <contour>
      <point x="195" y="165" type="curve" smooth="yes"/>
      <point x="276" y="165"/>
      <point x="332" y="220"/>
      <point x="354" y="273" type="curve"/>
      <point x="392" y="273" type="line"/>
      <point x="414" y="220"/>
      <point x="470" y="165"/>
      <point x="551" y="165" type="curve" smooth="yes"/>
      <point x="627" y="165"/>
      <point x="698" y="228"/>
      <point x="698" y="337" type="curve" smooth="yes"/>
      <point x="698" y="446"/>
      <point x="627" y="509"/>
      <point x="551" y="509" type="curve" smooth="yes"/>
      <point x="470" y="509"/>
      <point x="414" y="454"/>
      <point x="392" y="401" type="curve"/>
      <point x="354" y="401" type="line"/>
      <point x="332" y="454"/>
      <point x="276" y="509"/>
      <point x="195" y="509" type="curve" smooth="yes"/>
      <point x="119" y="509"/>
      <point x="48" y="446"/>
      <point x="48" y="337" type="curve" smooth="yes"/>
      <point x="48" y="228"/>
      <point x="119" y="165"/>
    </contour>
    <contour>
      <point x="216" y="272" type="curve" smooth="yes"/>
      <point x="178" y="272"/>
      <point x="157" y="294"/>
      <point x="157" y="334" type="curve" smooth="yes"/>
      <point x="157" y="340" type="line" smooth="yes"/>
      <point x="157" y="380"/>
      <point x="178" y="402"/>
      <point x="216" y="402" type="curve" smooth="yes"/>
      <point x="256" y="402"/>
      <point x="295" y="379"/>
      <point x="328" y="337" type="curve"/>
      <point x="295" y="295"/>
      <point x="256" y="272"/>
    </contour>
    <contour>
      <point x="530" y="272" type="curve" smooth="yes"/>
      <point x="490" y="272"/>
      <point x="451" y="295"/>
      <point x="418" y="337" type="curve"/>
      <point x="451" y="379"/>
      <point x="490" y="402"/>
      <point x="530" y="402" type="curve" smooth="yes"/>
      <point x="568" y="402"/>
      <point x="589" y="380"/>
      <point x="589" y="340" type="curve" smooth="yes"/>
      <point x="589" y="334" type="line" smooth="yes"/>
      <point x="589" y="294"/>
      <point x="568" y="272"/>
    </contour>
  </outline>
</glyph>
<glyph name="lozenge" format="1">
  <advance width="795"/>
  <unicode hex="25CA"/>
  <outline>
    <contour>
      <point x="334" y="0" type="line"/>
      <point x="461" y="0" type="line"/>
      <point x="755" y="345" type="line"/>
      <point x="461" y="690" type="line"/>
      <point x="334" y="690" type="line"/>
      <point x="40" y="345" type="line"/>
    </contour>
    <contour>
      <point x="378" y="135" type="line"/>
      <point x="198" y="345" type="line"/>
      <point x="378" y="555" type="line"/>
      <point x="416" y="555" type="line"/>
      <point x="596" y="345" type="line"/>
      <point x="416" y="135" type="line"/>
    </contour>
  </outline>
</glyph>
<glyph name="fl" format="1">
  <advance width="749"/>
  <unicode hex="FB02"/>
  <outline>
    <contour>
      <point x="125" y="596" type="curve" smooth="yes"/>
      <point x="125" y="0" type="line"/>
      <point x="284" y="0" type="line"/>
      <point x="284" y="582" type="line"/>
      <point x="414" y="582" type="line"/>
      <point x="414" y="690" type="line"/>
      <point x="218" y="690" type="line" smooth="yes"/>
      <point x="157" y="690"/>
      <point x="125" y="657"/>
    </contour>
    <contour>
      <point x="43" y="0" type="line"/>
      <point x="398" y="0" type="line"/>
      <point x="398" y="108" type="line"/>
      <point x="43" y="108" type="line"/>
    </contour>
    <contour>
      <point x="35" y="426" type="line"/>
      <point x="414" y="426" type="line"/>
      <point x="414" y="534" type="line"/>
      <point x="35" y="534" type="line"/>
    </contour>
    <contour>
      <point x="517" y="0" type="line"/>
      <point x="676" y="0" type="line"/>
      <point x="676" y="690" type="line"/>
      <point x="447" y="690" type="line"/>
      <point x="447" y="582" type="line"/>
      <point x="517" y="582" type="line"/>
    </contour>
    <contour>
      <point x="378" y="690" type="line"/>
      <point x="378" y="582" type="line"/>
      <point x="492" y="582" type="line"/>
      <point x="492" y="690" type="line"/>
    </contour>
  </outline>
</glyph>
<glyph name="AE.ss03" format="1">
  <advance width="1100"/>
  <note>
AE
</note>
  <outline>
    <contour>
      <point x="-10" y="0" type="line"/>
      <point x="162" y="0" type="line"/>
      <point x="436" y="563" type="line"/>
      <point x="474" y="563" type="line"/>
      <point x="605" y="690" type="line"/>
      <point x="325" y="690" type="line"/>
    </contour>
    <contour>
      <point x="169" y="150" type="line"/>
      <point x="560" y="150" type="line"/>
      <point x="560" y="258" type="line"/>
      <point x="172" y="258" type="line"/>
    </contour>
    <contour>
      <point x="910" y="483" type="line"/>
      <point x="1044" y="483" type="line"/>
      <point x="1044" y="690" type="line"/>
      <point x="474" y="690" type="line"/>
      <point x="474" y="0" type="line"/>
      <point x="1048" y="0" type="line"/>
      <point x="1048" y="211" type="line"/>
      <point x="914" y="211" type="line"/>
      <point x="914" y="112" type="line"/>
      <point x="636" y="112" type="line"/>
      <point x="636" y="300" type="line"/>
      <point x="925" y="300" type="line"/>
      <point x="925" y="404" type="line"/>
      <point x="636" y="404" type="line"/>
      <point x="636" y="578" type="line"/>
      <point x="910" y="578" type="line"/>
    </contour>
    <contour>
      <point x="1048" y="0" type="move" name="ogonek"/>
    </contour>
    <contour>
      <point x="760" y="690" type="move" name="top"/>
    </contour>
  </outline>
</glyph>
<glyph name="Aogonek.ss03" format="1">
  <advance width="746"/>
  <outline>
    <contour>
      <point x="12" y="0" type="line"/>
      <point x="175" y="0" type="line"/>
      <point x="350" y="563" type="line"/>
      <point x="388" y="563" type="line"/>
      <point x="564" y="0" type="line"/>
      <point x="734" y="0" type="line"/>
      <point x="520" y="690" type="line"/>
      <point x="226" y="690" type="line"/>
    </contour>
    <contour>
      <point x="166" y="150" type="line"/>
      <point x="563" y="150" type="line"/>
      <point x="561" y="258" type="line"/>
      <point x="169" y="258" type="line"/>
    </contour>
    <contour>
      <point x="597" y="-148" type="curve" smooth="yes"/>
      <point x="742" y="-148" type="line"/>
      <point x="742" y="-64" type="line"/>
      <point x="652" y="-64" type="line" smooth="yes"/>
      <point x="634" y="-64"/>
      <point x="627" y="-57"/>
      <point x="627" y="-45" type="curve" smooth="yes"/>
      <point x="627" y="-26"/>
      <point x="653" y="-15"/>
      <point x="734" y="0" type="curve"/>
      <point x="607" y="16" type="line"/>
      <point x="607" y="-22" type="line"/>
      <point x="543" y="-30"/>
      <point x="516" y="-50"/>
      <point x="516" y="-88" type="curve" smooth="yes"/>
      <point x="516" y="-127"/>
      <point x="544" y="-148"/>
    </contour>
    <contour>
      <point x="734" y="0" type="move" name="ogonek"/>
    </contour>
    <contour>
      <point x="369" y="690" type="move" name="top"/>
    </contour>
  </outline>
</glyph>
<glyph name="B.ss03" format="1">
  <advance width="738"/>
  <outline>
    <contour>
      <point x="81" y="0" type="line"/>
      <point x="446" y="0" type="line" smooth="yes"/>
      <point x="597" y="0"/>
      <point x="692" y="73"/>
      <point x="692" y="190" type="curve" smooth="yes"/>
      <point x="692" y="276"/>
      <point x="644" y="325"/>
      <point x="552" y="333" type="curve"/>
      <point x="552" y="371" type="line"/>
      <point x="638" y="379"/>
      <point x="684" y="426"/>
      <point x="684" y="507" type="curve" smooth="yes"/>
      <point x="684" y="619"/>
      <point x="592" y="690"/>
      <point x="444" y="690" type="curve"/>
      <point x="81" y="690" type="line"/>
    </contour>
    <contour>
      <point x="435" y="112" type="curve" smooth="yes"/>
      <point x="244" y="112" type="line"/>
      <point x="244" y="300" type="line"/>
      <point x="435" y="300" type="line" smooth="yes"/>
      <point x="497" y="300"/>
      <point x="525" y="270"/>
      <point x="525" y="207" type="curve" smooth="yes"/>
      <point x="525" y="205" type="line" smooth="yes"/>
      <point x="525" y="141"/>
      <point x="497" y="112"/>
    </contour>
    <contour>
      <point x="433" y="404" type="curve" smooth="yes"/>
      <point x="244" y="404" type="line"/>
      <point x="244" y="578" type="line"/>
      <point x="433" y="578" type="line" smooth="yes"/>
      <point x="491" y="578"/>
      <point x="517" y="551"/>
      <point x="517" y="492" type="curve" smooth="yes"/>
      <point x="517" y="490" type="line" smooth="yes"/>
      <point x="517" y="432"/>
      <point x="491" y="404"/>
    </contour>
  </outline>
</glyph>
<glyph name="Eth.ss03" format="1">
  <advance width="846"/>
  <note>
Eth
</note>
  <outline>
    <contour>
      <point x="25" y="300" type="line"/>
      <point x="440" y="300" type="line"/>
      <point x="440" y="404" type="line"/>
      <point x="25" y="404" type="line"/>
    </contour>
    <contour>
      <point x="120" y="0" type="line"/>
      <point x="448" y="0" type="line" smooth="yes"/>
      <point x="677" y="0"/>
      <point x="803" y="122"/>
      <point x="803" y="345" type="curve" smooth="yes"/>
      <point x="803" y="568"/>
      <point x="677" y="690"/>
      <point x="448" y="690" type="curve" smooth="yes"/>
      <point x="120" y="690" type="line"/>
    </contour>
    <contour>
      <point x="436" y="112" type="curve" smooth="yes"/>
      <point x="282" y="112" type="line"/>
      <point x="282" y="578" type="line"/>
      <point x="436" y="578" type="line" smooth="yes"/>
      <point x="571" y="578"/>
      <point x="633" y="506"/>
      <point x="633" y="348" type="curve" smooth="yes"/>
      <point x="633" y="342" type="line" smooth="yes"/>
      <point x="633" y="184"/>
      <point x="571" y="112"/>
    </contour>
  </outline>
</glyph>
<glyph name="F.ss03" format="1">
  <advance width="686"/>
  <outline>
    <contour>
      <point x="83" y="0" type="line"/>
      <point x="246" y="0" type="line"/>
      <point x="246" y="300" type="line"/>
      <point x="534" y="300" type="line"/>
      <point x="534" y="404" type="line"/>
      <point x="246" y="404" type="line"/>
      <point x="246" y="578" type="line"/>
      <point x="519" y="578" type="line"/>
      <point x="519" y="483" type="line"/>
      <point x="653" y="483" type="line"/>
      <point x="653" y="690" type="line"/>
      <point x="83" y="690" type="line"/>
    </contour>
  </outline>
</glyph>
<glyph name="K.ss03" format="1">
  <advance width="742"/>
  <outline>
    <contour>
      <point x="81" y="0" type="line"/>
      <point x="243" y="0" type="line"/>
      <point x="243" y="300" type="line"/>
      <point x="320" y="300" type="line"/>
      <point x="534" y="0" type="line"/>
      <point x="731" y="0" type="line"/>
      <point x="731" y="109" type="line"/>
      <point x="654" y="109" type="line"/>
      <point x="448" y="392" type="line"/>
      <point x="447" y="329" type="line"/>
      <point x="720" y="690" type="line"/>
      <point x="530" y="690" type="line"/>
      <point x="320" y="408" type="line"/>
      <point x="243" y="408" type="line"/>
      <point x="243" y="690" type="line"/>
      <point x="81" y="690" type="line"/>
    </contour>
  </outline>
</glyph>
<glyph name="L.ss03" format="1">
  <advance width="674"/>
  <outline>
    <contour>
      <point x="83" y="0" type="line"/>
      <point x="641" y="0" type="line"/>
      <point x="641" y="211" type="line"/>
      <point x="507" y="211" type="line"/>
      <point x="507" y="112" type="line"/>
      <point x="246" y="112" type="line"/>
      <point x="246" y="690" type="line"/>
      <point x="83" y="690" type="line"/>
    </contour>
    <contour>
      <point x="223" y="690" type="line"/>
      <point x="223" y="578" type="line"/>
      <point x="322" y="578" type="line"/>
      <point x="322" y="690" type="line"/>
    </contour>
  </outline>
</glyph>
<glyph name="M.ss04" format="1">
  <advance width="1042"/>
  <outline>
    <contour>
      <point x="91" y="0" type="line"/>
      <point x="250" y="0" type="line"/>
      <point x="250" y="563" type="line"/>
      <point x="288" y="563" type="line"/>
      <point x="448" y="0" type="line"/>
      <point x="600" y="0" type="line"/>
      <point x="760" y="563" type="line"/>
      <point x="798" y="563" type="line"/>
      <point x="798" y="0" type="line"/>
      <point x="961" y="0" type="line"/>
      <point x="961" y="690" type="line"/>
      <point x="667" y="690" type="line"/>
      <point x="545" y="249" type="line"/>
      <point x="507" y="249" type="line"/>
      <point x="385" y="690" type="line"/>
      <point x="91" y="690" type="line"/>
    </contour>
    <contour>
      <point x="110" y="578" type="line"/>
      <point x="110" y="690" type="line"/>
      <point x="14" y="690" type="line"/>
      <point x="14" y="578" type="line"/>
    </contour>
  </outline>
</glyph>
<glyph name="N.ss03" format="1">
  <advance width="800"/>
  <outline>
    <contour>
      <point x="81" y="0" type="line"/>
      <point x="240" y="0" type="line"/>
      <point x="240" y="341" type="line" smooth="yes"/>
      <point x="240" y="372"/>
      <point x="237" y="404"/>
      <point x="230" y="467" type="curve"/>
      <point x="268" y="467" type="line"/>
      <point x="565" y="0" type="line"/>
      <point x="719" y="0" type="line"/>
      <point x="719" y="690" type="line"/>
      <point x="560" y="690" type="line"/>
      <point x="560" y="414" type="line" smooth="yes"/>
      <point x="560" y="383"/>
      <point x="563" y="351"/>
      <point x="570" y="288" type="curve"/>
      <point x="532" y="288" type="line"/>
      <point x="277" y="690" type="line"/>
      <point x="81" y="690" type="line"/>
    </contour>
    <contour>
      <point x="400" y="690" type="move" name="top"/>
    </contour>
  </outline>
</glyph>
<glyph name="P.ss03" format="1">
  <advance width="712"/>
  <outline>
    <contour>
      <point x="81" y="0" type="line"/>
      <point x="243" y="0" type="line"/>
      <point x="243" y="270" type="line"/>
      <point x="437" y="270" type="line" smooth="yes"/>
      <point x="599" y="270"/>
      <point x="687" y="343"/>
      <point x="687" y="476" type="curve" smooth="yes"/>
      <point x="687" y="615"/>
      <point x="598" y="690"/>
      <point x="435" y="690" type="curve" smooth="yes"/>
      <point x="81" y="690" type="line"/>
    </contour>
    <contour>
      <point x="424" y="374" type="curve" smooth="yes"/>
      <point x="243" y="374" type="line"/>
      <point x="243" y="578" type="line"/>
      <point x="424" y="578" type="line" smooth="yes"/>
      <point x="490" y="578"/>
      <point x="521" y="546"/>
      <point x="521" y="479" type="curve" smooth="yes"/>
      <point x="521" y="473" type="line" smooth="yes"/>
      <point x="521" y="406"/>
      <point x="490" y="374"/>
    </contour>
  </outline>
</glyph>
<glyph name="U.ss03" format="1">
  <advance width="814"/>
  <outline>
    <contour>
      <point x="323" y="-10" type="curve" smooth="yes"/>
      <point x="444" y="-10"/>
      <point x="511" y="36"/>
      <point x="542" y="136" type="curve"/>
      <point x="580" y="136" type="line"/>
      <point x="580" y="94" type="line" smooth="yes"/>
      <point x="580" y="33"/>
      <point x="613" y="0"/>
      <point x="673" y="0" type="curve" smooth="yes"/>
      <point x="800" y="0" type="line"/>
      <point x="800" y="112" type="line"/>
      <point x="723" y="112" type="line"/>
      <point x="723" y="690" type="line"/>
      <point x="561" y="690" type="line"/>
      <point x="561" y="300" type="line" smooth="yes"/>
      <point x="561" y="169"/>
      <point x="510" y="110"/>
      <point x="399" y="110" type="curve" smooth="yes"/>
      <point x="287" y="110"/>
      <point x="237" y="169"/>
      <point x="237" y="300" type="curve" smooth="yes"/>
      <point x="237" y="690" type="line"/>
      <point x="74" y="690" type="line"/>
      <point x="74" y="266" type="line" smooth="yes"/>
      <point x="74" y="87"/>
      <point x="161" y="-10"/>
    </contour>
    <contour>
      <point x="399" y="690" type="move" name="top"/>
    </contour>
  </outline>
</glyph>
<glyph name="a.ss01" format="1">
  <advance width="723"/>
  <outline>
    <contour>
      <point x="276" y="-10" type="curve" smooth="yes"/>
      <point x="361" y="-10"/>
      <point x="419" y="33"/>
      <point x="443" y="115" type="curve"/>
      <point x="481" y="115" type="line"/>
      <point x="481" y="94" type="line" smooth="yes"/>
      <point x="481" y="33"/>
      <point x="514" y="0"/>
      <point x="575" y="0" type="curve" smooth="yes"/>
      <point x="689" y="0" type="line"/>
      <point x="689" y="108" type="line"/>
      <point x="621" y="108" type="line"/>
      <point x="621" y="426" type="line"/>
      <point x="689" y="426" type="line"/>
      <point x="689" y="534" type="line"/>
      <point x="481" y="534" type="line"/>
      <point x="481" y="419" type="line"/>
      <point x="443" y="419" type="line"/>
      <point x="419" y="501"/>
      <point x="361" y="544"/>
      <point x="276" y="544" type="curve" smooth="yes"/>
      <point x="138" y="544"/>
      <point x="41" y="432"/>
      <point x="41" y="267" type="curve" smooth="yes"/>
      <point x="41" y="102"/>
      <point x="138" y="-10"/>
    </contour>
    <contour>
      <point x="335" y="106" type="curve" smooth="yes"/>
      <point x="247" y="106"/>
      <point x="208" y="156"/>
      <point x="208" y="264" type="curve" smooth="yes"/>
      <point x="208" y="270" type="line" smooth="yes"/>
      <point x="208" y="378"/>
      <point x="247" y="428"/>
      <point x="335" y="428" type="curve" smooth="yes"/>
      <point x="423" y="428"/>
      <point x="462" y="378"/>
      <point x="462" y="270" type="curve" smooth="yes"/>
      <point x="462" y="264" type="line" smooth="yes"/>
      <point x="462" y="156"/>
      <point x="423" y="106"/>
    </contour>
    <contour>
      <point x="689" y="0" type="move" name="ogonek"/>
    </contour>
    <contour>
      <point x="335" y="534" type="move" name="top"/>
    </contour>
  </outline>
</glyph>
<glyph name="atilde.ss01" format="1">
  <advance width="723"/>
  <note>
atilde
</note>
  <outline>
    <component base="a.ss01"/>
    <component base="tildecomb" xOffset="135"/>
    <contour>
      <point x="689" y="0" type="move" name="ogonek"/>
    </contour>
    <contour>
      <point x="335" y="534" type="move" name="top"/>
    </contour>
  </outline>
</glyph>
<glyph name="f_f_i" format="1">
  <advance width="1199"/>
  <outline>
    <contour>
      <point x="125" y="596" type="curve" smooth="yes"/>
      <point x="125" y="0" type="line"/>
      <point x="284" y="0" type="line"/>
      <point x="284" y="582" type="line"/>
      <point x="414" y="582" type="line"/>
      <point x="414" y="690" type="line"/>
      <point x="218" y="690" type="line" smooth="yes"/>
      <point x="157" y="690"/>
      <point x="125" y="657"/>
    </contour>
    <contour>
      <point x="43" y="0" type="line"/>
      <point x="398" y="0" type="line"/>
      <point x="398" y="108" type="line"/>
      <point x="43" y="108" type="line"/>
    </contour>
    <contour>
      <point x="35" y="426" type="line"/>
      <point x="414" y="426" type="line"/>
      <point x="414" y="534" type="line"/>
      <point x="35" y="534" type="line"/>
    </contour>
    <contour>
      <point x="568" y="596" type="curve" smooth="yes"/>
      <point x="568" y="0" type="line"/>
      <point x="727" y="0" type="line"/>
      <point x="727" y="582" type="line"/>
      <point x="857" y="582" type="line"/>
      <point x="857" y="690" type="line"/>
      <point x="661" y="690" type="line" smooth="yes"/>
      <point x="600" y="690"/>
      <point x="568" y="657"/>
    </contour>
    <contour>
      <point x="486" y="0" type="line"/>
      <point x="841" y="0" type="line"/>
      <point x="841" y="108" type="line"/>
      <point x="486" y="108" type="line"/>
    </contour>
    <contour>
      <point x="478" y="426" type="line"/>
      <point x="857" y="426" type="line"/>
      <point x="857" y="534" type="line"/>
      <point x="478" y="534" type="line"/>
    </contour>
    <contour>
      <point x="969" y="0" type="line"/>
      <point x="1128" y="0" type="line"/>
      <point x="1128" y="534" type="line"/>
      <point x="899" y="534" type="line"/>
      <point x="899" y="426" type="line"/>
      <point x="969" y="426" type="line"/>
    </contour>
    <contour>
      <point x="961" y="572" type="line"/>
      <point x="1133" y="572" type="line"/>
      <point x="1133" y="690" type="line"/>
      <point x="961" y="690" type="line"/>
    </contour>
    <contour>
      <point x="806" y="534" type="line"/>
      <point x="806" y="426" type="line"/>
      <point x="929" y="426" type="line"/>
      <point x="929" y="534" type="line"/>
    </contour>
    <contour>
      <point x="337" y="426" type="line"/>
      <point x="542" y="426" type="line"/>
      <point x="542" y="534" type="line"/>
      <point x="337" y="534" type="line"/>
    </contour>
  </outline>
</glyph>
<glyph name="f_h" format="1">
  <advance width="1130"/>
  <outline>
    <contour>
      <point x="125" y="596" type="curve" smooth="yes"/>
      <point x="125" y="0" type="line"/>
      <point x="284" y="0" type="line"/>
      <point x="284" y="582" type="line"/>
      <point x="414" y="582" type="line"/>
      <point x="414" y="690" type="line"/>
      <point x="218" y="690" type="line" smooth="yes"/>
      <point x="157" y="690"/>
      <point x="125" y="657"/>
    </contour>
    <contour>
      <point x="43" y="0" type="line"/>
      <point x="398" y="0" type="line"/>
      <point x="398" y="108" type="line"/>
      <point x="43" y="108" type="line"/>
    </contour>
    <contour>
      <point x="35" y="426" type="line"/>
      <point x="414" y="426" type="line"/>
      <point x="414" y="534" type="line"/>
      <point x="35" y="534" type="line"/>
    </contour>
    <contour>
      <point x="515" y="0" type="line"/>
      <point x="674" y="0" type="line"/>
      <point x="674" y="300" type="line" smooth="yes"/>
      <point x="674" y="388"/>
      <point x="708" y="428"/>
      <point x="781" y="428" type="curve" smooth="yes"/>
      <point x="854" y="428"/>
      <point x="888" y="388"/>
      <point x="888" y="300" type="curve" smooth="yes"/>
      <point x="888" y="0" type="line"/>
      <point x="1114" y="0" type="line"/>
      <point x="1114" y="108" type="line"/>
      <point x="1047" y="108" type="line"/>
      <point x="1047" y="330" type="line" smooth="yes"/>
      <point x="1047" y="470"/>
      <point x="980" y="544"/>
      <point x="856" y="544" type="curve" smooth="yes"/>
      <point x="772" y="544"/>
      <point x="723" y="509"/>
      <point x="702" y="431" type="curve"/>
      <point x="664" y="431" type="line"/>
      <point x="671" y="494"/>
      <point x="674" y="526"/>
      <point x="674" y="557" type="curve" smooth="yes"/>
      <point x="674" y="690" type="line"/>
      <point x="447" y="690" type="line"/>
      <point x="447" y="582" type="line"/>
      <point x="515" y="582" type="line"/>
    </contour>
    <contour>
      <point x="382" y="690" type="line"/>
      <point x="382" y="582" type="line"/>
      <point x="495" y="582" type="line"/>
      <point x="495" y="690" type="line"/>
    </contour>
  </outline>
</glyph>
<glyph name="f_j" format="1">
  <advance width="756"/>
  <outline>
    <contour>
      <point x="125" y="596" type="curve" smooth="yes"/>
      <point x="125" y="0" type="line"/>
      <point x="284" y="0" type="line"/>
      <point x="284" y="582" type="line"/>
      <point x="414" y="582" type="line"/>
      <point x="414" y="690" type="line"/>
      <point x="218" y="690" type="line" smooth="yes"/>
      <point x="157" y="690"/>
      <point x="125" y="657"/>
    </contour>
    <contour>
      <point x="43" y="0" type="line"/>
      <point x="398" y="0" type="line"/>
      <point x="398" y="108" type="line"/>
      <point x="43" y="108" type="line"/>
    </contour>
    <contour>
      <point x="35" y="426" type="line"/>
      <point x="414" y="426" type="line"/>
      <point x="414" y="534" type="line"/>
      <point x="35" y="534" type="line"/>
    </contour>
    <contour>
      <point x="448" y="-132" type="line"/>
      <point x="591" y="-132" type="line" smooth="yes"/>
      <point x="652" y="-132"/>
      <point x="685" y="-99"/>
      <point x="685" y="-38" type="curve" smooth="yes"/>
      <point x="685" y="534" type="line"/>
      <point x="456" y="534" type="line"/>
      <point x="456" y="426" type="line"/>
      <point x="526" y="426" type="line"/>
      <point x="526" y="-24" type="line"/>
      <point x="448" y="-24" type="line"/>
    </contour>
    <contour>
      <point x="518" y="572" type="line"/>
      <point x="690" y="572" type="line"/>
      <point x="690" y="690" type="line"/>
      <point x="518" y="690" type="line"/>
    </contour>
    <contour>
      <point x="363" y="534" type="line"/>
      <point x="363" y="426" type="line"/>
      <point x="486" y="426" type="line"/>
      <point x="486" y="534" type="line"/>
    </contour>
  </outline>
</glyph>
<glyph name="f_k" format="1">
  <advance width="1109"/>
  <outline>
    <contour>
      <point x="125" y="596" type="curve" smooth="yes"/>
      <point x="125" y="0" type="line"/>
      <point x="284" y="0" type="line"/>
      <point x="284" y="582" type="line"/>
      <point x="414" y="582" type="line"/>
      <point x="414" y="690" type="line"/>
      <point x="218" y="690" type="line" smooth="yes"/>
      <point x="157" y="690"/>
      <point x="125" y="657"/>
    </contour>
    <contour>
      <point x="43" y="0" type="line"/>
      <point x="398" y="0" type="line"/>
      <point x="398" y="108" type="line"/>
      <point x="43" y="108" type="line"/>
    </contour>
    <contour>
      <point x="35" y="426" type="line"/>
      <point x="414" y="426" type="line"/>
      <point x="414" y="534" type="line"/>
      <point x="35" y="534" type="line"/>
    </contour>
    <contour>
      <point x="514" y="0" type="line"/>
      <point x="673" y="0" type="line"/>
      <point x="673" y="224" type="line"/>
      <point x="742" y="224" type="line"/>
      <point x="905" y="0" type="line"/>
      <point x="1090" y="0" type="line"/>
      <point x="1090" y="108" type="line"/>
      <point x="1022" y="108" type="line"/>
      <point x="865" y="316" type="line"/>
      <point x="864" y="249" type="line"/>
      <point x="1087" y="534" type="line"/>
      <point x="900" y="534" type="line"/>
      <point x="742" y="328" type="line"/>
      <point x="673" y="328" type="line"/>
      <point x="673" y="690" type="line"/>
      <point x="447" y="690" type="line"/>
      <point x="447" y="582" type="line"/>
      <point x="514" y="582" type="line"/>
    </contour>
    <contour>
      <point x="381" y="690" type="line"/>
      <point x="381" y="582" type="line"/>
      <point x="494" y="582" type="line"/>
      <point x="494" y="690" type="line"/>
    </contour>
  </outline>
</glyph>
<glyph name="f_t" format="1">
  <advance width="873"/>
  <outline>
    <contour>
      <point x="125" y="596" type="curve" smooth="yes"/>
      <point x="125" y="0" type="line"/>
      <point x="284" y="0" type="line"/>
      <point x="284" y="582" type="line"/>
      <point x="414" y="582" type="line"/>
      <point x="414" y="690" type="line"/>
      <point x="218" y="690" type="line" smooth="yes"/>
      <point x="157" y="690"/>
      <point x="125" y="657"/>
    </contour>
    <contour>
      <point x="43" y="0" type="line"/>
      <point x="398" y="0" type="line"/>
      <point x="398" y="108" type="line"/>
      <point x="43" y="108" type="line"/>
    </contour>
    <contour>
      <point x="35" y="426" type="line"/>
      <point x="414" y="426" type="line"/>
      <point x="414" y="534" type="line"/>
      <point x="35" y="534" type="line"/>
    </contour>
    <contour>
      <point x="647" y="0" type="curve" smooth="yes"/>
      <point x="835" y="0" type="line"/>
      <point x="835" y="108" type="line"/>
      <point x="712" y="108" type="line"/>
      <point x="712" y="646" type="line"/>
      <point x="603" y="646" type="line"/>
      <point x="553" y="534" type="line"/>
      <point x="553" y="94" type="line" smooth="yes"/>
      <point x="553" y="33"/>
      <point x="586" y="0"/>
    </contour>
    <contour>
      <point x="459" y="426" type="line"/>
      <point x="835" y="426" type="line"/>
      <point x="835" y="534" type="line"/>
      <point x="459" y="534" type="line"/>
    </contour>
    <contour>
      <point x="366" y="534" type="line"/>
      <point x="366" y="426" type="line"/>
      <point x="489" y="426" type="line"/>
      <point x="489" y="534" type="line"/>
    </contour>
  </outline>
</glyph>
<glyph name="f_thorn" format="1">
  <advance width="1143"/>
  <outline>
    <contour>
      <point x="125" y="596" type="curve" smooth="yes"/>
      <point x="125" y="0" type="line"/>
      <point x="284" y="0" type="line"/>
      <point x="284" y="582" type="line"/>
      <point x="414" y="582" type="line"/>
      <point x="414" y="690" type="line"/>
      <point x="218" y="690" type="line" smooth="yes"/>
      <point x="157" y="690"/>
      <point x="125" y="657"/>
    </contour>
    <contour>
      <point x="43" y="0" type="line"/>
      <point x="398" y="0" type="line"/>
      <point x="398" y="108" type="line"/>
      <point x="43" y="108" type="line"/>
    </contour>
    <contour>
      <point x="35" y="426" type="line"/>
      <point x="414" y="426" type="line"/>
      <point x="414" y="534" type="line"/>
      <point x="35" y="534" type="line"/>
    </contour>
    <contour>
      <point x="514" y="-132" type="line"/>
      <point x="673" y="-132" type="line"/>
      <point x="673" y="-17" type="line" smooth="yes"/>
      <point x="673" y="10"/>
      <point x="670" y="42"/>
      <point x="663" y="105" type="curve"/>
      <point x="702" y="105" type="line"/>
      <point x="723" y="29"/>
      <point x="779" y="-10"/>
      <point x="864" y="-10" type="curve" smooth="yes"/>
      <point x="1004" y="-10"/>
      <point x="1103" y="102"/>
      <point x="1103" y="267" type="curve" smooth="yes"/>
      <point x="1103" y="432"/>
      <point x="1004" y="544"/>
      <point x="864" y="544" type="curve" smooth="yes"/>
      <point x="779" y="544"/>
      <point x="723" y="505"/>
      <point x="702" y="429" type="curve"/>
      <point x="663" y="429" type="line"/>
      <point x="670" y="492"/>
      <point x="673" y="524"/>
      <point x="673" y="555" type="curve" smooth="yes"/>
      <point x="673" y="690" type="line"/>
      <point x="447" y="690" type="line"/>
      <point x="447" y="582" type="line"/>
      <point x="514" y="582" type="line"/>
    </contour>
    <contour>
      <point x="805" y="106" type="curve" smooth="yes"/>
      <point x="715" y="106"/>
      <point x="673" y="156"/>
      <point x="673" y="264" type="curve" smooth="yes"/>
      <point x="673" y="270" type="line" smooth="yes"/>
      <point x="673" y="378"/>
      <point x="715" y="428"/>
      <point x="805" y="428" type="curve" smooth="yes"/>
      <point x="895" y="428"/>
      <point x="936" y="378"/>
      <point x="936" y="270" type="curve" smooth="yes"/>
      <point x="936" y="264" type="line" smooth="yes"/>
      <point x="936" y="156"/>
      <point x="895" y="106"/>
    </contour>
    <contour>
      <point x="381" y="690" type="line"/>
      <point x="381" y="582" type="line"/>
      <point x="494" y="582" type="line"/>
      <point x="494" y="690" type="line"/>
    </contour>
  </outline>
</glyph>
<glyph name="g.ss02" format="1">
  <advance width="715"/>
  <outline>
    <contour>
      <point x="336" y="-142" type="curve" smooth="yes"/>
      <point x="525" y="-142"/>
      <point x="626" y="-65"/>
      <point x="626" y="78" type="curve" smooth="yes"/>
      <point x="626" y="426" type="line"/>
      <point x="694" y="426" type="line"/>
      <point x="694" y="534" type="line"/>
      <point x="486" y="534" type="line"/>
      <point x="486" y="419" type="line"/>
      <point x="448" y="419" type="line"/>
      <point x="423" y="500"/>
      <point x="364" y="544"/>
      <point x="276" y="544" type="curve" smooth="yes"/>
      <point x="135" y="544"/>
      <point x="38" y="432"/>
      <point x="38" y="291" type="curve" smooth="yes"/>
      <point x="38" y="151"/>
      <point x="135" y="47"/>
      <point x="276" y="47" type="curve" smooth="yes"/>
      <point x="360" y="47"/>
      <point x="420" y="83"/>
      <point x="439" y="153" type="curve"/>
      <point x="477" y="153" type="line"/>
      <point x="473" y="119"/>
      <point x="471" y="98"/>
      <point x="470" y="81" type="curve" smooth="yes"/>
      <point x="465" y="6"/>
      <point x="421" y="-30"/>
      <point x="329" y="-30" type="curve" smooth="yes"/>
      <point x="270" y="-30"/>
      <point x="221" y="-12"/>
      <point x="221" y="4" type="curve"/>
      <point x="221" y="4" type="line"/>
      <point x="60" y="4" type="line"/>
      <point x="87" y="-91"/>
      <point x="181" y="-142"/>
    </contour>
    <contour>
      <point x="336" y="154" type="curve" smooth="yes"/>
      <point x="246" y="154"/>
      <point x="204" y="204"/>
      <point x="204" y="290" type="curve" smooth="yes"/>
      <point x="204" y="292" type="line" smooth="yes"/>
      <point x="204" y="378"/>
      <point x="246" y="428"/>
      <point x="336" y="428" type="curve" smooth="yes"/>
      <point x="426" y="428"/>
      <point x="467" y="378"/>
      <point x="467" y="292" type="curve" smooth="yes"/>
      <point x="467" y="290" type="line" smooth="yes"/>
      <point x="467" y="204"/>
      <point x="426" y="154"/>
    </contour>
  </outline>
</glyph>
<glyph name="j_acutecomb" format="1">
  <advance width="313"/>
  <outline>
    <component base="jdotless"/>
    <component base="acutecomb" xOffset="-39"/>
    <contour>
      <point x="161" y="534" type="move" name="top"/>
    </contour>
  </outline>
</glyph>
<glyph name="questiondown.case" format="1">
  <advance width="638"/>
  <outline>
    <contour>
      <point x="390" y="448" type="curve" smooth="yes"/>
      <point x="385" y="486" type="line"/>
      <point x="296" y="486" type="line"/>
      <point x="293" y="460" type="line" smooth="yes"/>
      <point x="289" y="431"/>
      <point x="278" y="420"/>
      <point x="236" y="409" type="curve" smooth="yes"/>
      <point x="76" y="368"/>
      <point x="23" y="313"/>
      <point x="23" y="207" type="curve" smooth="yes"/>
      <point x="23" y="207" type="line" smooth="yes"/>
      <point x="23" y="70"/>
      <point x="147" y="-10"/>
      <point x="325" y="-10" type="curve" smooth="yes"/>
      <point x="498" y="-10"/>
      <point x="601" y="63"/>
      <point x="626" y="222" type="curve"/>
      <point x="466" y="222" type="line"/>
      <point x="466" y="222" type="line" smooth="yes"/>
      <point x="466" y="152"/>
      <point x="413" y="109"/>
      <point x="322" y="109" type="curve" smooth="yes"/>
      <point x="244" y="109"/>
      <point x="187" y="136"/>
      <point x="187" y="200" type="curve" smooth="yes"/>
      <point x="187" y="200" type="line" smooth="yes"/>
      <point x="187" y="243"/>
      <point x="210" y="271"/>
      <point x="279" y="288" type="curve" smooth="yes"/>
      <point x="373" y="312"/>
      <point x="406" y="355"/>
    </contour>
    <contour>
      <point x="424" y="690" type="line"/>
      <point x="256" y="690" type="line"/>
      <point x="256" y="529" type="line"/>
      <point x="424" y="529" type="line"/>
    </contour>
  </outline>
</glyph>
<glyph name="tildecomb.case" format="1">
  <advance width="0"/>
  <note>
tilde
</note>
  <outline>
    <component base="tildecomb" yOffset="116" identifier="DF07599A"/>
    <contour>
      <point x="200" y="650" type="move" name="_top"/>
    </contour>
  </outline>
</glyph>
<glyph name="zero.zero" format="1">
  <advance width="782"/>
  <outline>
    <contour>
      <point x="391" y="-10" type="curve" smooth="yes"/>
      <point x="612" y="-10"/>
      <point x="734" y="116"/>
      <point x="734" y="345" type="curve" smooth="yes"/>
      <point x="734" y="574"/>
      <point x="612" y="700"/>
      <point x="391" y="700" type="curve" smooth="yes"/>
      <point x="170" y="700"/>
      <point x="48" y="574"/>
      <point x="48" y="345" type="curve" smooth="yes"/>
      <point x="48" y="116"/>
      <point x="170" y="-10"/>
    </contour>
    <contour>
      <point x="391" y="110" type="curve" smooth="yes"/>
      <point x="272" y="110"/>
      <point x="219" y="175"/>
      <point x="219" y="316" type="curve" smooth="yes"/>
      <point x="219" y="374" type="line" smooth="yes"/>
      <point x="219" y="515"/>
      <point x="272" y="580"/>
      <point x="391" y="580" type="curve" smooth="yes"/>
      <point x="510" y="580"/>
      <point x="563" y="515"/>
      <point x="563" y="374" type="curve" smooth="yes"/>
      <point x="563" y="316" type="line" smooth="yes"/>
      <point x="563" y="175"/>
      <point x="510" y="110"/>
    </contour>
  </outline>
</glyph>
